<svg width="192" height="39" viewBox="0 0 192 39" fill="none" xmlns="http://www.w3.org/2000/svg">
<g clip-path="url(#clip0_177_498)">
<path d="M15.6584 0.5H28.3396C36.983 0.5 44 7.50892 44 16.1405C44 24.774 36.983 31.7809 28.3416 31.7809H15.6604C7.01695 31.783 0 24.774 0 16.1405C0 7.50892 7.01695 0.5 15.6584 0.5Z" fill="url(#paint0_linear_177_498)"/>
<path d="M39.6988 15.2709C36.4887 12.0645 31.2822 12.0645 28.072 15.2709C24.8619 12.0645 19.6553 12.0645 16.4452 15.2709C13.2351 18.4774 13.2351 23.678 16.4452 26.8844L28.072 38.4979L39.6988 26.8844C42.909 23.678 42.909 18.4774 39.6988 15.2709Z" fill="url(#paint1_linear_177_498)"/>
<path d="M28.0698 15.2709C24.8597 12.0645 19.6531 12.0645 16.443 15.2709C13.2329 18.4774 13.2329 23.678 16.443 26.8844L21.3451 31.7809H28.3395C32.3732 31.7809 36.0492 30.2562 38.8241 27.756L39.6966 26.8844C42.9068 23.678 42.9068 18.4774 39.6966 15.2709C36.4865 12.0645 31.28 12.0645 28.0698 15.2709Z" fill="url(#paint2_linear_177_498)"/>
<path d="M28.0698 15.2709C28.0698 15.2709 37.3794 26.4436 41.552 24.0372C42.6861 21.0981 42.069 17.6406 39.6966 15.2709C36.4865 12.0645 31.28 12.0645 28.0698 15.2709Z" fill="url(#paint3_linear_177_498)"/>
<path d="M28.3397 0.5H15.6585C8.3943 0.5 2.28665 5.44339 0.51709 12.1441C8.64768 9.07235 14.4304 14.3199 22.4241 11.4012C28.7422 9.0948 30.7018 4.15549 31.2842 0.779622C30.3299 0.59797 29.345 0.5 28.3376 0.5L28.3397 0.5Z" fill="url(#paint4_linear_177_498)"/>
</g>
<path d="M72.31 26.385C72.53 26.385 72.725 26.47 72.895 26.64L74.485 28.365C73.605 29.455 72.52 30.29 71.23 30.87C69.95 31.45 68.41 31.74 66.61 31.74C65 31.74 63.55 31.465 62.26 30.915C60.98 30.365 59.885 29.6 58.975 28.62C58.065 27.64 57.365 26.47 56.875 25.11C56.395 23.75 56.155 22.265 56.155 20.655C56.155 19.025 56.415 17.535 56.935 16.185C57.455 14.825 58.185 13.655 59.125 12.675C60.075 11.695 61.205 10.935 62.515 10.395C63.825 9.845 65.275 9.57 66.865 9.57C68.445 9.57 69.845 9.83 71.065 10.35C72.295 10.87 73.34 11.55 74.2 12.39L72.85 14.265C72.77 14.385 72.665 14.49 72.535 14.58C72.415 14.67 72.245 14.715 72.025 14.715C71.875 14.715 71.72 14.675 71.56 14.595C71.4 14.505 71.225 14.4 71.035 14.28C70.845 14.15 70.625 14.01 70.375 13.86C70.125 13.71 69.835 13.575 69.505 13.455C69.175 13.325 68.79 13.22 68.35 13.14C67.92 13.05 67.42 13.005 66.85 13.005C65.88 13.005 64.99 13.18 64.18 13.53C63.38 13.87 62.69 14.37 62.11 15.03C61.53 15.68 61.08 16.48 60.76 17.43C60.44 18.37 60.28 19.445 60.28 20.655C60.28 21.875 60.45 22.96 60.79 23.91C61.14 24.86 61.61 25.66 62.2 26.31C62.79 26.96 63.485 27.46 64.285 27.81C65.085 28.15 65.945 28.32 66.865 28.32C67.415 28.32 67.91 28.29 68.35 28.23C68.8 28.17 69.21 28.075 69.58 27.945C69.96 27.815 70.315 27.65 70.645 27.45C70.985 27.24 71.32 26.985 71.65 26.685C71.75 26.595 71.855 26.525 71.965 26.475C72.075 26.415 72.19 26.385 72.31 26.385ZM83.1517 15.87C84.2917 15.87 85.3267 16.055 86.2567 16.425C87.1967 16.795 87.9967 17.32 88.6567 18C89.3267 18.68 89.8417 19.51 90.2017 20.49C90.5617 21.47 90.7417 22.565 90.7417 23.775C90.7417 24.995 90.5617 26.095 90.2017 27.075C89.8417 28.055 89.3267 28.89 88.6567 29.58C87.9967 30.27 87.1967 30.8 86.2567 31.17C85.3267 31.54 84.2917 31.725 83.1517 31.725C82.0017 31.725 80.9567 31.54 80.0167 31.17C79.0767 30.8 78.2717 30.27 77.6017 29.58C76.9417 28.89 76.4267 28.055 76.0567 27.075C75.6967 26.095 75.5167 24.995 75.5167 23.775C75.5167 22.565 75.6967 21.47 76.0567 20.49C76.4267 19.51 76.9417 18.68 77.6017 18C78.2717 17.32 79.0767 16.795 80.0167 16.425C80.9567 16.055 82.0017 15.87 83.1517 15.87ZM83.1517 28.875C84.4317 28.875 85.3767 28.445 85.9867 27.585C86.6067 26.725 86.9167 25.465 86.9167 23.805C86.9167 22.145 86.6067 20.88 85.9867 20.01C85.3767 19.14 84.4317 18.705 83.1517 18.705C81.8517 18.705 80.8867 19.145 80.2567 20.025C79.6367 20.895 79.3267 22.155 79.3267 23.805C79.3267 25.455 79.6367 26.715 80.2567 27.585C80.8867 28.445 81.8517 28.875 83.1517 28.875ZM97.0333 18C97.3433 17.69 97.6683 17.405 98.0083 17.145C98.3583 16.875 98.7233 16.65 99.1033 16.47C99.4933 16.28 99.9083 16.135 100.348 16.035C100.788 15.925 101.268 15.87 101.788 15.87C102.628 15.87 103.373 16.015 104.023 16.305C104.673 16.585 105.213 16.985 105.643 17.505C106.083 18.015 106.413 18.63 106.633 19.35C106.863 20.06 106.978 20.845 106.978 21.705V31.5H103.273V21.705C103.273 20.765 103.058 20.04 102.628 19.53C102.198 19.01 101.543 18.75 100.663 18.75C100.023 18.75 99.4233 18.895 98.8633 19.185C98.3033 19.475 97.7733 19.87 97.2733 20.37V31.5H93.5683V16.11H95.8333C96.3133 16.11 96.6283 16.335 96.7783 16.785L97.0333 18ZM122.633 13.125H116.093V31.5H112.058V13.125H105.518V9.81H122.633V13.125ZM134.822 23.31L132.182 16.095C132.052 15.775 131.917 15.395 131.777 14.955C131.637 14.515 131.497 14.04 131.357 13.53C131.227 14.04 131.092 14.52 130.952 14.97C130.812 15.41 130.677 15.795 130.547 16.125L127.922 23.31H134.822ZM141.947 31.5H138.827C138.477 31.5 138.192 31.415 137.972 31.245C137.752 31.065 137.587 30.845 137.477 30.585L135.857 26.16H126.872L125.252 30.585C125.172 30.815 125.017 31.025 124.787 31.215C124.557 31.405 124.272 31.5 123.932 31.5H120.782L129.317 9.81H133.427L141.947 31.5ZM147.043 18C147.353 17.69 147.678 17.405 148.018 17.145C148.368 16.875 148.733 16.65 149.113 16.47C149.503 16.28 149.918 16.135 150.358 16.035C150.798 15.925 151.278 15.87 151.798 15.87C152.638 15.87 153.383 16.015 154.033 16.305C154.683 16.585 155.223 16.985 155.653 17.505C156.093 18.015 156.423 18.63 156.643 19.35C156.873 20.06 156.988 20.845 156.988 21.705V31.5H153.283V21.705C153.283 20.765 153.068 20.04 152.638 19.53C152.208 19.01 151.553 18.75 150.673 18.75C150.033 18.75 149.433 18.895 148.873 19.185C148.313 19.475 147.783 19.87 147.283 20.37V31.5H143.578V16.11H145.843C146.323 16.11 146.638 16.335 146.788 16.785L147.043 18ZM167.322 15.87C168.462 15.87 169.497 16.055 170.427 16.425C171.367 16.795 172.167 17.32 172.827 18C173.497 18.68 174.012 19.51 174.372 20.49C174.732 21.47 174.912 22.565 174.912 23.775C174.912 24.995 174.732 26.095 174.372 27.075C174.012 28.055 173.497 28.89 172.827 29.58C172.167 30.27 171.367 30.8 170.427 31.17C169.497 31.54 168.462 31.725 167.322 31.725C166.172 31.725 165.127 31.54 164.187 31.17C163.247 30.8 162.442 30.27 161.772 29.58C161.112 28.89 160.597 28.055 160.227 27.075C159.867 26.095 159.687 24.995 159.687 23.775C159.687 22.565 159.867 21.47 160.227 20.49C160.597 19.51 161.112 18.68 161.772 18C162.442 17.32 163.247 16.795 164.187 16.425C165.127 16.055 166.172 15.87 167.322 15.87ZM167.322 28.875C168.602 28.875 169.547 28.445 170.157 27.585C170.777 26.725 171.087 25.465 171.087 23.805C171.087 22.145 170.777 20.88 170.157 20.01C169.547 19.14 168.602 18.705 167.322 18.705C166.022 18.705 165.057 19.145 164.427 20.025C163.807 20.895 163.497 22.155 163.497 23.805C163.497 25.455 163.807 26.715 164.427 27.585C165.057 28.445 166.022 28.875 167.322 28.875ZM189.434 13.755C189.314 13.965 189.184 14.12 189.044 14.22C188.914 14.31 188.749 14.355 188.549 14.355C188.339 14.355 188.109 14.28 187.859 14.13C187.619 13.97 187.329 13.795 186.989 13.605C186.649 13.415 186.249 13.245 185.789 13.095C185.339 12.935 184.804 12.855 184.184 12.855C183.624 12.855 183.134 12.925 182.714 13.065C182.294 13.195 181.939 13.38 181.649 13.62C181.369 13.86 181.159 14.15 181.019 14.49C180.879 14.82 180.809 15.185 180.809 15.585C180.809 16.095 180.949 16.52 181.229 16.86C181.519 17.2 181.899 17.49 182.369 17.73C182.839 17.97 183.374 18.185 183.974 18.375C184.574 18.565 185.189 18.77 185.819 18.99C186.449 19.2 187.064 19.45 187.664 19.74C188.264 20.02 188.799 20.38 189.269 20.82C189.739 21.25 190.114 21.78 190.394 22.41C190.684 23.04 190.829 23.805 190.829 24.705C190.829 25.685 190.659 26.605 190.319 27.465C189.989 28.315 189.499 29.06 188.849 29.7C188.209 30.33 187.424 30.83 186.494 31.2C185.564 31.56 184.499 31.74 183.299 31.74C182.609 31.74 181.929 31.67 181.259 31.53C180.589 31.4 179.944 31.21 179.324 30.96C178.714 30.71 178.139 30.41 177.599 30.06C177.059 29.71 176.579 29.32 176.159 28.89L177.344 26.955C177.444 26.815 177.574 26.7 177.734 26.61C177.894 26.51 178.064 26.46 178.244 26.46C178.494 26.46 178.764 26.565 179.054 26.775C179.344 26.975 179.689 27.2 180.089 27.45C180.489 27.7 180.954 27.93 181.484 28.14C182.024 28.34 182.669 28.44 183.419 28.44C184.569 28.44 185.459 28.17 186.089 27.63C186.719 27.08 187.034 26.295 187.034 25.275C187.034 24.705 186.889 24.24 186.599 23.88C186.319 23.52 185.944 23.22 185.474 22.98C185.004 22.73 184.469 22.52 183.869 22.35C183.269 22.18 182.659 21.995 182.039 21.795C181.419 21.595 180.809 21.355 180.209 21.075C179.609 20.795 179.074 20.43 178.604 19.98C178.134 19.53 177.754 18.97 177.464 18.3C177.184 17.62 177.044 16.785 177.044 15.795C177.044 15.005 177.199 14.235 177.509 13.485C177.829 12.735 178.289 12.07 178.889 11.49C179.489 10.91 180.229 10.445 181.109 10.095C181.989 9.745 182.999 9.57 184.139 9.57C185.419 9.57 186.599 9.77 187.679 10.17C188.759 10.57 189.679 11.13 190.439 11.85L189.434 13.755Z" fill="url(#paint5_linear_177_498)"/>
<defs>
<linearGradient id="paint0_linear_177_498" x1="21.999" y1="30.7155" x2="21.999" y2="-21.98" gradientUnits="userSpaceOnUse">
<stop stop-color="#5CAA9A"/>
<stop offset="1" stop-color="#9DCCC2"/>
</linearGradient>
<linearGradient id="paint1_linear_177_498" x1="28.07" y1="42.4514" x2="28.07" y2="10.8154" gradientUnits="userSpaceOnUse">
<stop stop-color="#0E424D"/>
<stop offset="0.25" stop-color="#5CAA9A"/>
</linearGradient>
<linearGradient id="paint2_linear_177_498" x1="28.0698" y1="39.349" x2="28.0698" y2="16.9303" gradientUnits="userSpaceOnUse">
<stop stop-color="#9EC79B"/>
<stop offset="1" stop-color="#5D8966"/>
</linearGradient>
<linearGradient id="paint3_linear_177_498" x1="29.5" y1="15" x2="28.9905" y2="24.4995" gradientUnits="userSpaceOnUse">
<stop stop-color="#F29683"/>
<stop offset="1" stop-color="#FCD07F"/>
</linearGradient>
<linearGradient id="paint4_linear_177_498" x1="28.8464" y1="28.8888" x2="12.8519" y2="1.11482" gradientUnits="userSpaceOnUse">
<stop stop-color="#0E424D"/>
<stop offset="1" stop-color="#5CAA9A"/>
</linearGradient>
<linearGradient id="paint5_linear_177_498" x1="45.2143" y1="19.5" x2="221.168" y2="26.3412" gradientUnits="userSpaceOnUse">
<stop stop-color="#0F7D7C"/>
<stop offset="1" stop-color="#9EC79B"/>
</linearGradient>
<clipPath id="clip0_177_498">
<rect width="44" height="38" fill="white" transform="translate(0 0.5)"/>
</clipPath>
</defs>
</svg>
