<svg width="911" height="421" viewBox="0 0 911 421" fill="none" xmlns="http://www.w3.org/2000/svg">
<g clip-path="url(#clip0_204_421)">
<path d="M878.847 417.687C862.024 417.687 827.547 418.878 827.181 419.424H740.26L714.82 419.37H487.029L420.503 419.314H245.131L171.882 419.261H39.4187C39.4187 419.261 39.1992 418.825 38.7602 417.954L38.6881 417.844C38.6881 417.844 38.616 417.734 38.616 417.681C38.3244 417.245 -71.6153 244.246 109.899 158.962C180.919 125.594 143.495 58.964 248.609 18.6006C384.135 -33.4403 421.077 42.1749 581.335 23.894C720.521 8.01694 783.94 58.5848 774.172 133.789C769.585 169.113 801.086 196.192 832.16 201.049C917.889 214.447 914.816 292.93 907.808 350.594C903.487 386.143 879.446 417.69 878.85 417.69L878.847 417.687Z" fill="#EBF3FA"/>
<path d="M360.978 281.685C360.978 281.685 359.878 280.347 358.228 279.934C356.579 279.52 353.011 277.777 353.425 278.689C353.839 279.601 355.83 280.679 355.497 281.344C355.497 281.344 349.828 279.767 349.662 280.764C349.496 281.758 351.659 285.559 354.086 286.377C354.889 286.647 360.474 285.575 360.474 285.575L360.975 281.689L360.978 281.685Z" fill="#F2A16B"/>
<path d="M543.349 298.484C543.349 298.484 541.126 296.061 538.156 296.447C536.639 296.644 534.447 294.259 534.556 295.807C534.666 297.355 536.864 300.938 537.611 301.552C539.078 302.759 542.302 302.361 542.302 302.361L546.256 304.796L543.349 298.484Z" fill="#FFB27D"/>
<path d="M71.1455 232.606C71.1455 232.606 54.771 249.577 53.9965 255.964C53.222 262.351 61.8419 272.324 61.8419 272.324L71.1486 232.609L71.1455 232.606Z" fill="#FFB27D" fill-opacity="0.43"/>
<path d="M78.5454 408.48C78.5454 408.48 79.1224 417.481 80.8658 417.606C81.0978 417.622 89.7053 417.606 89.7053 417.606L100.693 417.518C100.693 417.518 100.614 414.873 97.4033 414.318C94.1893 413.767 88.8116 411.523 86.8549 407.282C84.7979 402.823 78.5454 408.48 78.5454 408.48Z" fill="#2358A5"/>
<path d="M54.0718 408.533C54.0718 408.533 54.6487 417.534 56.3922 417.659C56.6242 417.675 65.2316 417.659 65.2316 417.659L76.219 417.571C76.219 417.571 76.1406 414.926 72.9297 414.375C69.7156 413.823 64.338 411.579 62.3813 407.339C60.3243 402.879 54.0718 408.536 54.0718 408.536V408.533Z" fill="#2358A5"/>
<path d="M90.5019 311.697C90.5019 311.697 87.6673 330.072 77.0185 362.703C66.3698 395.335 64.9399 409.457 64.9399 409.457L53.4383 409.159C53.4383 409.159 53.2627 373.522 58.1669 357.115C63.0711 340.709 59.1044 298.001 59.1044 298.001L90.4988 311.697H90.5019Z" fill="#0F7D7C"/>
<path d="M96.0709 298.929C96.0709 298.929 96.5381 326.609 91.8189 360.607C87.0997 394.605 88.7554 409.028 88.7554 409.028L77.2788 409.435C77.2788 409.435 70.3459 375.45 72.2743 358.435C74.2027 341.42 62.7544 300.082 62.7544 300.082L96.0646 298.932L96.0709 298.929Z" fill="#0F7170"/>
<path d="M73.7134 234.201L79.8373 238.194L88.6705 236.53C88.5482 235.818 87.9556 232.863 87.4194 230.187C87.388 230.03 87.3535 229.87 87.3253 229.716C86.8644 227.441 86.4693 225.485 86.4693 225.485L78.2068 221.862L75.1276 220.512C75.137 220.559 75.3721 223.038 75.4035 223.401C75.9961 229.829 73.7134 234.201 73.7134 234.201Z" fill="#FFB27D"/>
<path d="M86.3971 232.152C86.2247 232.08 75.7484 229.015 74.6133 229.394C73.4782 229.773 72.8071 231.973 72.8071 231.973L89.9404 235.806C89.9404 235.806 88.5858 233.07 86.3971 232.155V232.152Z" fill="#FFB27D" fill-opacity="0.43"/>
<path d="M58.3552 302.427C60.1488 310.516 89.6868 311.412 97.2845 304.05C98.1499 303.21 98.1813 299.314 97.8458 294.065C97.1842 283.804 95.0989 268.375 95.0017 260.487C94.9547 256.679 94.4216 252.783 93.7161 249.248C92.2173 241.714 89.9408 235.803 89.9408 235.803C89.9408 235.803 75.5041 231.174 72.8075 231.97C59.8101 235.819 56.5647 294.338 58.3552 302.427Z" fill="#F29683"/>
<path d="M97.8424 294.062C97.1807 283.801 95.0955 268.372 94.9983 260.484C94.9513 256.676 94.4182 252.78 93.7127 249.245L85.03 247.734C85.03 247.734 76.6201 282.391 97.8392 294.062H97.8424Z" fill="#FFB27D" fill-opacity="0.43"/>
<path d="M93.1138 279.77C93.1138 279.77 92.5243 281.184 93.7691 282.13C95.014 283.077 95.823 284.612 95.5408 285.734C95.2586 286.86 92.5368 288.696 91.593 288.405C90.6491 288.11 88.7207 286.637 88.9276 286.042C89.1346 285.449 87.6232 280.845 89.9216 279.065C92.2201 277.285 93.1138 279.767 93.1138 279.767V279.77Z" fill="#FFB27D"/>
<path d="M83.3089 233.74C83.3089 233.74 91.7752 235.304 98.542 245.224C105.309 255.143 109.761 262.517 108.526 266.1C107.29 269.682 95.9958 282.124 94.0423 282.127C92.0887 282.13 88.9374 280.72 88.7524 277.526C88.7524 277.526 96.2121 265.115 94.638 263.329C93.9639 262.567 84.7575 255.184 83.381 258.734C81.1076 264.608 83.3089 233.737 83.3089 233.737V233.74Z" fill="#F29683"/>
<path d="M76.0215 223.514C77.8402 226.579 84.6007 229.218 87.4197 230.187C87.3883 230.03 87.3538 229.87 87.3256 229.717C86.8647 227.441 86.4696 225.486 86.4696 225.486L78.2071 221.863C76.3821 221.841 75.2721 222.251 76.0247 223.514H76.0215Z" fill="#FCA56B"/>
<path d="M89.5766 224.975C89.5766 224.975 76.2908 229.149 73.8168 220.838C71.3427 212.529 67.9625 207.471 76.341 204.453C84.7195 201.438 87.319 204.114 88.8178 206.687C90.3198 209.26 92.9663 223.671 89.5735 224.971L89.5766 224.975Z" fill="#FFB27D"/>
<path d="M88.2944 205.891C88.2944 205.891 87.4666 215.569 85.466 215.153C83.4623 214.736 81.6467 214.429 81.9446 217.346C82.2457 220.261 85.027 223.624 78.8591 224.154C72.6913 224.683 63.786 208.797 65.473 205.782C70.3458 197.082 95.3402 195.276 88.2944 205.888V205.891Z" fill="#0B4E4D"/>
<path d="M782.971 266.588C782.971 266.588 781.839 264.72 781.146 263.686C780.453 262.652 779.073 261.364 778.719 261.696C778.364 262.028 779.778 263.395 779.716 263.852C779.653 264.31 777.282 262.774 777.028 262.429C776.514 261.737 775.16 260.991 774.993 261.862C774.827 262.733 775.834 265.469 776.292 266.256C776.749 267.043 778.659 268.287 779.716 268.66C780.772 269.033 782.582 269.904 782.582 269.904L782.971 266.588Z" fill="#FFB27D"/>
<path d="M831.015 205.189C826.973 203.093 823.734 204.412 823.734 204.412C811.367 202.961 807.758 217.378 807.924 222.339C808.09 227.3 808.658 232.628 803.133 239.072C787.179 257.688 820.592 258.509 820.592 258.509C820.874 243.635 838.713 249.063 837.932 250.57C860.798 256.055 840.206 209.959 831.012 205.193L831.015 205.189Z" fill="#0A504F"/>
<path d="M814.76 268.265C814.76 268.265 813.578 270.606 811.433 273.292C808.849 276.527 804.864 280.265 799.859 281.005C797.47 281.356 795.131 280.842 792.983 279.889C792.976 279.889 792.976 279.889 792.976 279.889C786.899 277.194 782.331 270.992 782.331 270.992C781.258 268.071 783.011 266.093 783.011 266.093C783.011 266.093 795.281 268.851 796.451 268.268C797.62 267.685 804.437 248.054 806.058 245.587C807.683 243.121 813.214 241.839 813.214 241.839L814.76 268.265Z" fill="#F29683"/>
<path d="M811.433 273.292C808.849 276.527 804.864 280.265 799.859 281.005C797.47 281.356 795.131 280.842 792.983 279.889C793.221 279.921 799.289 280.67 801.709 276.345C804.177 271.932 806.846 264.921 810.511 267.259C812.091 268.268 812.022 270.772 811.433 273.295V273.292Z" fill="#FFB27D" fill-opacity="0.43"/>
<path d="M860.541 400.657C860.541 400.657 864.285 404.073 863.554 406.499C862.824 408.924 859.443 410.545 858.989 413.509C858.531 416.474 856.706 418.095 855.063 418.095H847.227C847.227 418.095 846.016 416.007 848.939 415.377C851.861 414.747 852.965 411.262 852.78 408.028C852.598 404.794 853.053 400.478 853.053 400.478L859.261 399.04L860.541 400.657Z" fill="#2358A5"/>
<path d="M828.849 402.108C828.849 402.108 830.197 416.578 828.551 417.386L807.513 417.343C807.513 417.343 807.513 414.917 810.894 414.378C814.274 413.839 820.21 411.861 821.213 407.458C822.217 403.054 828.849 402.111 828.849 402.111V402.108Z" fill="#2358A5"/>
<path d="M843.843 298.305C839.513 288.602 836.866 285.816 837.371 282.804C837.747 280.563 836.224 241.009 836.224 241.009C835.709 240.849 834.681 240.708 834.116 240.582C832.342 240.188 830.871 238.94 830.26 237.229C829.523 235.167 828.936 232.12 828.952 228.303L828.397 228.413L819.071 230.259C819.071 230.259 819.285 233.192 819.291 235.953C819.291 235.975 819.291 236 819.291 236.022C819.304 238.423 817.726 240.542 815.422 241.206C814.243 241.545 813.22 241.836 813.22 241.836C813.22 241.836 809.796 251.605 809.141 261.643C808.489 271.682 815.368 276.041 809.087 296.099C802.678 316.583 846.233 303.668 843.843 298.305Z" fill="#FFB27D"/>
<path d="M819.072 230.259C819.072 230.259 819.285 233.192 819.291 235.953C824.509 235.806 827.268 231.048 828.397 228.413L819.072 230.259Z" fill="#E8945B"/>
<path d="M817.328 232.876C817.328 232.876 829.673 233.08 829.682 225.392C829.692 217.707 831.291 212.555 823.408 212.1C815.525 211.646 813.992 214.576 813.364 217.14C812.737 219.703 814.117 232.622 817.328 232.873V232.876Z" fill="#FFB27D"/>
<path d="M817.786 211.915C817.786 211.915 821.166 220.932 826.353 222.267C831.539 223.599 833.79 222.211 833.79 222.211C833.79 222.211 829.811 219.051 828.986 213.535C828.986 213.535 820.335 207.625 817.786 211.915Z" fill="#0A504F"/>
<path d="M818.623 212.645C818.623 212.645 816.118 213.582 815.086 215.409C814.076 217.196 813.217 219.562 813.418 222.467C813.418 222.467 810.872 216.337 813.731 212.871C816.767 209.195 818.623 212.648 818.623 212.648V212.645Z" fill="#0A504F"/>
<path d="M820.015 228.109C820.015 228.109 819.162 229.227 817.46 229.149C816.086 229.083 815.556 227.892 815.556 227.892C815.556 227.892 818.078 227.287 820.015 228.109Z" fill="#EBF3FA"/>
<path d="M845.035 258.506C845.035 258.506 845.348 262.925 845.035 268.224C844.825 271.738 841.269 276.445 840.764 277.611C839.497 280.532 838.07 281.005 838.07 281.005L827.023 283.71L823.138 284.659L810.89 281.005C810.89 281.005 805.312 265.441 807.551 256.682C809.79 247.922 813.214 241.839 813.214 241.839C813.214 241.839 823.207 251.62 836.22 241.008L845.032 258.506H845.035Z" fill="#F29683"/>
<path d="M841.802 269.66C841.592 273.173 841.269 276.445 840.767 277.611C839.5 280.532 838.074 281.005 838.074 281.005L827.027 283.71L822.229 282.3C822.229 282.3 838.243 279.874 836.468 266.103L841.802 269.657V269.66Z" fill="#F2CCAA"/>
<path d="M811.671 283.368C811.671 283.368 805.607 302.238 805.215 308.663C804.826 315.088 816.811 399.927 817.29 402.888C817.745 405.678 821.21 407.458 821.21 407.458C821.21 407.458 822.803 408.398 825.079 407.755C828.237 406.865 829.234 405.797 829.234 405.797C829.234 405.797 833.956 345.291 831.034 323.675C828.112 302.06 828.077 283.368 828.077 283.368H811.665H811.671Z" fill="#0F7D7C"/>
<path d="M837.368 282.804C837.368 282.804 846.622 295.212 847.484 303.599C848.346 311.985 848.838 341.449 850.676 349.625C852.513 357.802 859.265 373.538 859.265 399.04C859.265 399.04 858.562 400.5 856.395 401.281C855.702 401.528 854.774 401.773 853.871 401.976C852.084 402.387 850.249 401.513 849.434 399.873C844.869 390.688 830.329 361.061 829.585 354.912C829.059 350.559 824.468 321.757 814.453 304.855C812.048 300.797 815.926 284.663 815.926 284.663L837.365 282.807L837.368 282.804Z" fill="#0F7170"/>
<path d="M819.739 228.312C819.739 228.312 819.526 229.218 817.272 229.077C817.272 229.077 815.378 228.961 815.437 227.964C815.437 227.964 817.272 227.256 819.739 228.312Z" fill="white"/>
<path d="M810.702 280.454C810.702 280.454 813.139 282.378 817.974 282.475C823.753 282.591 838.067 281.002 838.067 281.002C838.067 281.002 838.704 282.779 838.679 284.653C838.679 284.653 821.194 289.063 811.063 285.296C811.063 285.296 809.755 282.839 810.702 280.451V280.454Z" fill="#233862"/>
<path d="M816.588 287.452C815.133 287.452 813.951 286.114 813.951 284.468C813.951 282.823 815.133 281.485 816.588 281.485C818.043 281.485 819.225 282.823 819.225 284.468C819.225 286.114 818.043 287.452 816.588 287.452ZM816.588 282.359C815.616 282.359 814.826 283.306 814.826 284.468C814.826 285.631 815.616 286.578 816.588 286.578C817.56 286.578 818.35 285.631 818.35 284.468C818.35 283.306 817.56 282.359 816.588 282.359Z" fill="white"/>
<path d="M835.527 259.33L817.614 274.921L838.968 299.43L856.881 283.84L835.527 259.33Z" fill="#5D8966"/>
<path d="M834.029 283.926C834.029 283.926 827.064 284.995 827.083 286.553C827.105 288.11 828.522 290.928 829.93 291.15C831.718 291.432 835.273 286.822 835.273 286.822L834.029 283.926Z" fill="#FFB27D"/>
<path d="M833.881 284.293C833.881 284.293 831.548 283.44 829.836 283.791C828.124 284.142 826.541 283.885 826.933 284.506C827.321 285.13 829.639 284.898 830.006 285.142C830.372 285.387 830.379 285.233 830.379 285.233L833.884 284.293H833.881Z" fill="#FFB27D"/>
<path d="M836.224 241.009C836.224 241.009 844.988 241.623 848.346 249.784C851.704 257.945 858.079 271.65 858.079 273.954C858.079 276.257 854.52 283.365 835.399 287.452C835.399 287.452 833.42 285.374 833.543 283.729C833.543 283.729 845.477 273.48 845.446 272.283C845.386 270.017 843.489 267.027 833.01 256.55C830.159 253.701 836.224 241.005 836.224 241.005V241.009Z" fill="#F29683"/>
<path d="M277.538 417.938C272.929 417.938 268.326 417.534 263.798 416.722C259.656 415.979 255.607 414.901 251.694 413.51C245.586 414.086 239.434 414.099 233.332 413.529C214.527 411.777 197.243 406.145 182.907 397.373C179.498 398.112 175.983 398.388 172.368 398.2C163.579 397.745 155.26 394.439 147.64 388.378C140.397 382.614 134.141 374.66 129.046 364.735C120.112 347.334 115.694 325.468 116.6 303.163C117.603 278.457 125.004 254.704 138.004 234.477C148.239 218.553 159.543 206.189 171.606 197.727C182.054 190.4 193.371 185.793 205.242 184.035C208.56 183.543 211.837 183.279 215.073 183.207C225.417 177.027 237.32 172.426 249.825 169.869C264.459 166.876 286.71 166.186 309.616 179.879C333.432 194.114 352.484 220.609 366.246 258.625C367.033 260.8 367.764 262.966 368.435 265.131C371.593 266.764 375.001 268.598 378.808 270.647L379.056 270.782C390.952 277.188 409.509 282.315 428.7 284.493C444.701 286.311 468.463 286.944 490.814 279.645C511.701 272.822 526.457 260.631 534.676 243.403L536.473 244.259C528.009 261.997 512.855 274.537 491.432 281.535C468.739 288.947 444.67 288.308 428.474 286.468C409.045 284.262 390.219 279.05 378.109 272.531L377.858 272.396C374.725 270.71 371.875 269.174 369.228 267.786C374.76 286.869 375.832 305.517 372.405 323.34C368.94 341.355 360.913 357.727 349.192 370.692C345.783 374.463 342.121 377.869 338.27 380.869C338.003 381.458 337.728 382.041 337.452 382.614C338.819 385.219 339.637 387.732 339.493 389.904C339.258 393.471 335.206 396.605 327.452 399.222C326.812 399.438 326.154 399.648 325.47 399.855C319.149 406.248 311.51 410.937 302.574 413.892C294.458 416.575 285.983 417.932 277.535 417.932L277.538 417.938ZM256.423 412.949C258.953 413.688 261.531 414.293 264.149 414.763C276.651 417.007 289.724 416.055 301.953 412.009C309.334 409.567 315.837 405.875 321.397 400.98C310.924 403.597 296.807 405.308 281.596 405.891C281 406.148 280.401 406.395 279.799 406.64C272.289 409.689 264.419 411.802 256.426 412.942L256.423 412.949ZM185.622 396.68C199.363 404.722 215.744 409.893 233.517 411.548C238.123 411.977 242.767 412.068 247.392 411.83C242.328 409.667 237.533 406.963 233.118 403.763C225.953 402.773 219.359 401.488 213.558 399.939C205.96 397.912 199.727 395.454 194.91 392.599C191.922 394.38 188.821 395.74 185.622 396.683V396.68ZM237.452 404.314C241.967 407.226 246.834 409.63 251.945 411.485C260.057 410.683 268.081 408.862 275.77 406.063C268.345 406.207 260.741 406.082 253.24 405.665C247.778 405.364 242.494 404.91 237.452 404.314ZM233.902 401.87C239.945 402.688 246.445 403.296 253.35 403.678C262.638 404.192 272.082 404.258 281.135 403.923C286.679 401.519 291.903 398.632 296.735 395.317C294.073 395.141 291.464 394.737 288.933 394.104C282.96 392.606 278.065 389.045 274.058 383.188C267.837 383.366 261.468 383.012 255.005 382.11C239.55 379.95 226.894 375.262 217.167 368.113C215.559 370.937 213.953 373.444 212.389 375.663C216.738 384.959 222.94 392.963 230.876 399.51C231.864 400.325 232.874 401.111 233.905 401.87H233.902ZM300.04 395.417C295.794 398.516 291.219 401.287 286.384 403.681C301.341 402.857 314.89 400.92 324.423 398.096C326.298 396.169 328.048 394.088 329.672 391.85C331.557 389.255 333.281 386.435 334.843 383.401C330.098 386.707 325.119 389.4 320.02 391.399C313.285 394.038 306.528 395.386 300.04 395.417ZM196.829 391.386C204.565 395.718 215.866 399.099 229.901 401.287C229.801 401.205 229.704 401.127 229.606 401.046C221.723 394.542 215.502 386.645 211.056 377.5C208.942 380.326 206.923 382.633 205.086 384.498C202.442 387.187 199.686 389.484 196.829 391.386ZM336.332 384.836C333.993 389.28 331.299 393.279 328.258 396.83C334.078 394.674 337.345 392.192 337.505 389.776C337.596 388.415 337.194 386.751 336.332 384.836ZM211.702 185.307C209.526 185.467 207.484 185.711 205.528 186C193.963 187.711 182.935 192.205 172.744 199.354C160.895 207.665 149.766 219.844 139.675 235.549C126.866 255.478 119.576 278.884 118.585 303.238C117.691 325.205 122.034 346.72 130.814 363.823C135.778 373.494 141.858 381.232 148.879 386.817C156.169 392.615 164.105 395.777 172.468 396.21C175.181 396.351 177.837 396.213 180.43 395.806C171.412 389.914 163.657 382.737 157.549 374.469C154.457 370.285 151.82 365.882 149.637 361.287C142.88 357.652 137.327 352.383 133.05 345.535C127.13 336.055 124.01 323.945 124.025 310.519C124.032 304.871 124.624 299.133 125.731 293.585C125.117 277.411 131.783 258.688 144.567 240.742C156.824 223.536 172.835 209.734 188.485 202.87C190.235 202.102 191.96 201.432 193.662 200.855C195.895 198.295 198.319 195.847 200.928 193.521C204.236 190.572 207.845 187.824 211.705 185.304L211.702 185.307ZM152.576 362.732C154.463 366.386 156.655 369.909 159.151 373.284C165.507 381.884 173.691 389.284 183.252 395.245C186.616 394.436 189.871 393.151 193.004 391.393C190.721 389.863 188.818 388.227 187.3 386.491C181.907 380.314 177.15 373.842 173.208 367.342C169.932 367.167 166.652 366.769 163.378 366.123C159.518 365.358 155.915 364.227 152.576 362.735V362.732ZM276.444 383.091C280.028 387.92 284.308 390.888 289.419 392.173C292.627 392.979 295.967 393.395 299.388 393.424C305.129 389.168 310.253 384.288 314.605 378.891C316.907 376.039 318.964 373.081 320.776 370.028C307.622 377.829 292.546 382.263 276.441 383.088L276.444 383.091ZM323.862 368.649C321.689 372.632 319.117 376.475 316.157 380.145C312.266 384.968 307.776 389.39 302.787 393.333C308.18 392.991 313.74 391.722 319.296 389.547C324.495 387.51 329.572 384.727 334.391 381.289C332.507 378.308 329.801 374.914 326.342 371.219C325.545 370.37 324.721 369.514 323.865 368.649H323.862ZM175.588 367.433C179.282 373.375 183.71 379.355 188.802 385.184C190.37 386.98 192.424 388.672 194.92 390.252C197.955 388.328 200.874 385.943 203.668 383.103C205.634 381.104 207.817 378.587 210.099 375.447C209.497 374.102 208.93 372.733 208.403 371.338C207.851 369.887 207.346 368.414 206.885 366.922C206.167 366.769 205.459 366.593 204.756 366.396C202.978 365.9 201.254 365.264 199.582 364.493C191.825 366.468 183.744 367.612 175.595 367.433H175.588ZM219.814 367.549C229.077 373.917 240.936 378.136 255.284 380.138C261.22 380.969 267.075 381.326 272.803 381.226C270.242 376.967 268.072 371.661 266.234 365.239C266.002 364.424 265.773 363.597 265.554 362.757C262.907 362.393 260.264 361.933 257.624 361.375C254.2 360.654 250.942 359.751 247.862 358.673C241.71 361.663 235.429 364.195 229.224 365.816C225.938 366.675 222.808 367.251 219.814 367.546V367.549ZM267.689 363.033C267.84 363.594 267.993 364.145 268.15 364.694C270.085 371.454 272.38 376.91 275.111 381.16C292.32 380.483 308.349 375.622 322.09 366.894C319.39 364.268 316.439 361.594 313.291 358.921C310.4 359.798 307.497 360.557 304.583 361.199C292.405 363.885 280.034 364.496 267.689 363.033ZM325.238 367.214C326.122 368.104 326.972 368.987 327.794 369.862C330.619 372.88 333.701 376.509 335.993 380.116C336.219 379.947 336.442 379.778 336.665 379.606C339.361 373.551 341.478 366.74 342.983 359.234C343.598 356.166 344.115 352.976 344.535 349.657C341.512 353.336 338.182 356.796 334.57 359.99C331.6 362.616 328.487 365.023 325.238 367.217V367.214ZM346.884 346.673C346.407 351.208 345.758 355.53 344.936 359.626C343.676 365.9 342.008 371.68 339.935 376.951C342.647 374.629 345.25 372.093 347.718 369.364C359.016 356.865 366.811 341.126 370.291 323.794C367.077 327.123 360.662 333.287 351.606 339.769C350.142 342.138 348.564 344.442 346.887 346.673H346.884ZM209.099 367.333C209.46 368.445 209.849 369.545 210.263 370.636C210.636 371.62 211.028 372.592 211.438 373.551C212.633 371.805 213.847 369.887 215.066 367.784C213.016 367.778 211.031 367.627 209.099 367.333ZM208.441 365.208C210.291 365.537 212.207 365.725 214.185 365.772C212.564 364.409 211.037 362.967 209.604 361.45C208.942 361.682 208.278 361.911 207.61 362.133C207.867 363.168 208.143 364.192 208.441 365.208ZM223.219 355.812C221.683 359.429 220.109 362.701 218.525 365.656C221.761 365.415 225.157 364.825 228.719 363.895C234.21 362.462 239.775 360.29 245.269 357.711C240.638 355.878 236.43 353.618 232.664 350.942C229.682 352.6 226.524 354.242 223.219 355.809V355.812ZM174.356 365.408C181.979 365.709 189.561 364.803 196.886 363.111C191.897 360.256 187.441 356.094 183.578 350.663C181.477 347.71 179.605 344.617 177.968 341.405C173.484 340.587 168.953 339.455 164.385 338.017C164.065 337.916 163.748 337.813 163.425 337.71C164.861 346.25 168.618 355.752 174.353 365.408H174.356ZM315.53 358.219C318.305 360.607 320.923 362.989 323.344 365.339C325.263 361.481 326.812 357.495 327.985 353.405C323.874 355.251 319.719 356.856 315.53 358.219ZM151.158 359.839C154.971 361.817 159.179 363.268 163.767 364.174C166.501 364.716 169.242 365.076 171.982 365.274C169.994 361.842 168.238 358.41 166.739 355.019C163.946 348.694 162.117 342.614 161.29 336.976C155.457 334.895 149.374 331.999 143.921 327.982C144.172 339.311 146.602 350.023 151.158 359.839ZM211.658 360.707C213.182 362.268 214.816 363.744 216.553 365.133C217.882 362.675 219.205 359.996 220.507 357.069C217.65 358.357 214.693 359.582 211.658 360.71V360.707ZM202.702 363.653C203.853 364.08 205.032 364.44 206.239 364.738C206.054 364.076 205.882 363.415 205.716 362.748C204.719 363.061 203.715 363.365 202.702 363.653ZM330.356 352.311C329.296 356.373 327.878 360.337 326.107 364.186C328.574 362.422 330.958 360.526 333.253 358.495C337.586 354.662 341.5 350.443 344.962 345.911C345.021 345.325 345.078 344.733 345.131 344.141C343.764 345.012 342.346 345.877 340.891 346.733C337.423 348.77 333.908 350.628 330.359 352.311H330.356ZM180.436 341.825C181.856 344.476 183.446 347.043 185.202 349.509C189.41 355.423 194.246 359.714 199.764 362.4C201.614 361.917 203.446 361.384 205.255 360.811C204.8 358.767 204.421 356.696 204.12 354.593C204.004 354.424 203.891 354.251 203.778 354.079C201.542 350.675 199.658 346.977 198.127 342.981C192.326 343.153 186.425 342.768 180.436 341.822V341.825ZM267.15 360.964C279.529 362.522 291.937 361.952 304.154 359.259C306.597 358.72 309.036 358.097 311.463 357.391C303.122 350.471 293.54 343.602 283.684 337.534C281.508 338.885 279.219 340.336 276.836 341.843C273.029 344.257 268.965 346.833 264.726 349.39C265.438 353.446 266.234 357.319 267.147 360.964H267.15ZM250.387 357.426C252.829 358.206 255.379 358.874 258.034 359.435C260.361 359.924 262.694 360.341 265.027 360.679C264.237 357.438 263.534 354.032 262.898 350.487C258.85 352.894 254.654 355.257 250.387 357.429V357.426ZM206.735 358.153C206.867 358.836 207.008 359.52 207.158 360.196C207.494 360.084 207.826 359.971 208.159 359.858C207.672 359.3 207.199 358.733 206.738 358.156L206.735 358.153ZM206.029 353.863C207.299 355.712 208.685 357.473 210.181 359.137C214.16 357.689 218.008 356.066 221.68 354.342C222.931 351.349 224.154 348.118 225.329 344.63C224.916 344.2 224.511 343.761 224.113 343.316C222.962 342.028 221.88 340.678 220.871 339.27C219.942 339.552 219.008 339.819 218.07 340.073C213.862 341.201 209.585 342.003 205.242 342.486C205.258 346.369 205.521 350.164 206.029 353.859V353.863ZM126.571 301.069C126.211 304.216 126.023 307.385 126.016 310.528C126.001 323.581 129.014 335.325 134.737 344.489C138.315 350.221 142.83 354.79 148.236 358.175C144.078 348.331 141.952 337.663 141.905 326.424C134.605 320.472 128.719 312.296 126.568 301.069H126.571ZM285.584 336.368C295.612 342.599 305.333 349.638 313.743 356.702C318.763 355.129 323.739 353.195 328.65 350.916C330.465 343.567 331.086 335.901 330.487 328.072C327.449 330.561 324.241 332.551 320.92 333.977C312.006 337.81 303.903 337.948 296.835 334.391C295.528 333.733 294.27 332.962 293.06 332.084C290.783 333.269 288.278 334.726 285.584 336.368ZM234.589 349.86C238.499 352.534 242.889 354.759 247.743 356.526C252.798 354.035 257.768 351.236 262.534 348.387C261.662 343.244 260.916 337.832 260.239 332.225C256.608 335.165 252.861 337.998 249.07 340.656C245.053 343.473 240.155 346.676 234.586 349.863L234.589 349.86ZM226.9 346.197C226.073 348.604 225.223 350.888 224.354 353.057C226.615 351.944 228.807 350.797 230.908 349.644C229.506 348.557 228.167 347.406 226.9 346.197ZM200.228 342.9C201.207 345.369 202.326 347.72 203.587 349.948C203.38 347.563 203.267 345.14 203.251 342.687C202.248 342.774 201.238 342.846 200.228 342.9ZM332.35 326.465C333.112 334.453 332.638 342.285 330.958 349.813C333.958 348.347 336.934 346.748 339.879 345.018C341.776 343.906 343.594 342.774 345.335 341.643C346.072 331.846 346.043 321.096 345.25 309.437C341.641 316.245 337.248 322.017 332.35 326.465ZM227.603 344.103C229.218 345.705 230.952 347.2 232.805 348.585C238.64 345.285 243.761 341.944 247.925 339.023C252.146 336.061 256.172 332.99 259.96 329.89C259.756 328.16 259.562 326.415 259.367 324.65C257.156 323.688 254.999 322.813 252.898 322.03C245.667 327.844 238.038 332.479 230.08 335.901C229.287 338.775 228.456 341.508 227.603 344.106V344.103ZM262.064 330.724C262.747 336.472 263.491 342.019 264.365 347.278C268.348 344.865 272.173 342.439 275.77 340.16C277.846 338.844 279.852 337.572 281.781 336.371C281.251 336.052 280.718 335.735 280.188 335.419C275.221 332.479 270.392 329.865 265.751 327.596C264.541 328.649 263.312 329.693 262.067 330.724H262.064ZM347.244 342.768C347.244 342.768 347.244 342.777 347.244 342.781C347.247 342.774 347.254 342.765 347.26 342.759C347.257 342.759 347.251 342.765 347.244 342.768ZM222.871 338.637C223.727 339.797 224.64 340.919 225.599 341.991C225.743 342.154 225.891 342.317 226.038 342.477C226.618 340.671 227.186 338.803 227.741 336.867C226.129 337.506 224.508 338.095 222.871 338.637ZM179.301 339.621C185.434 340.681 191.477 341.141 197.406 341.013C193.791 330.577 192.471 318.238 193.449 304.059C192.461 303.16 191.508 302.217 190.592 301.226C190.031 300.618 189.482 299.994 188.949 299.355C184.428 301.446 180.442 303.461 177.191 305.278C175.196 306.394 173.403 307.645 171.819 309.033C171.825 309.252 171.832 309.469 171.841 309.688C172.221 320.244 174.773 330.414 179.304 339.621H179.301ZM195.337 305.683C194.55 319.225 195.936 331 199.492 340.941C200.752 340.881 202.009 340.797 203.261 340.684C203.317 336.882 203.599 332.999 204.11 329.047C204.142 328.307 204.483 321.698 207.139 312.728C202.828 310.926 198.877 308.572 195.337 305.683ZM209.018 313.471C206.381 322.494 206.098 329.066 206.095 329.169L206.089 329.26C205.597 333.074 205.318 336.816 205.255 340.483C209.419 340.01 213.52 339.233 217.556 338.152C218.271 337.96 218.98 337.76 219.691 337.55C215.273 330.808 212.429 322.892 211.369 314.279C210.576 314.026 209.795 313.756 209.021 313.468L209.018 313.471ZM346.987 305.946C347.975 318.379 348.122 329.834 347.429 340.251C348.348 339.628 349.245 339.007 350.113 338.387C359 323.873 363.703 306.861 363.412 289.223C363.28 281.203 360.913 275.806 356.175 272.716C355.664 272.383 355.124 272.079 354.563 271.804C354.663 283.083 351.967 295.265 346.984 305.943L346.987 305.946ZM163.105 335.506C163.723 335.716 164.35 335.92 164.983 336.121C168.981 337.381 172.948 338.399 176.877 339.173C172.772 330.398 170.396 320.814 169.897 310.882C166.395 314.609 164.165 319.15 163.243 324.465C162.654 327.859 162.619 331.57 163.105 335.503V335.506ZM213.455 314.9C214.583 323.077 217.387 330.57 221.67 336.936C223.943 336.202 226.192 335.372 228.415 334.444C230.039 328.449 231.293 322.578 232.222 317.1C231.485 317.059 230.767 317.037 230.064 317.037C224.16 317.037 218.6 316.317 213.455 314.9ZM354.51 269.594C355.494 270.011 356.413 270.497 357.263 271.052C362.521 274.48 365.262 280.582 365.403 289.191C365.673 305.62 361.703 321.513 354.121 335.431C363.957 327.909 369.878 321.375 370.95 320.159C373.785 302.928 372.38 284.929 366.773 266.513C361.878 264 357.642 262.025 353.459 260.521C353.977 263.179 354.315 265.94 354.469 268.782C354.485 269.052 354.497 269.322 354.507 269.591L354.51 269.594ZM267.366 326.179C271.831 328.383 276.46 330.899 281.201 333.711C282.029 334.2 282.853 334.698 283.678 335.199C286.419 333.516 288.98 332.003 291.335 330.743C286.917 327.041 283.154 321.886 279.868 315.721C279.156 315.915 278.445 316.091 277.736 316.248C274.522 319.585 271.035 322.92 267.363 326.179H267.366ZM295.092 331.072C295.957 331.648 296.835 332.162 297.729 332.614C304.339 335.942 311.667 335.792 320.13 332.15C323.661 330.633 327.066 328.439 330.261 325.659C329.681 320.291 328.531 314.847 326.803 309.384C326.11 307.197 325.301 305.116 324.376 303.144C315.254 316.997 305.255 327.026 297.597 329.99C296.804 330.298 295.967 330.661 295.092 331.075V331.072ZM143.899 325.496C148.618 329.201 154.338 332.3 161.011 334.764C160.625 330.978 160.713 327.411 161.283 324.127C162.39 317.739 165.25 312.393 169.809 308.159C169.615 296.202 172.039 284.236 176.865 273.327C175.598 267.375 174.958 260.925 174.967 254.034C172.876 253.927 170.803 253.893 168.749 253.933C157.662 269.895 149.816 287.863 146.041 305.949C144.649 312.622 143.94 319.153 143.902 325.496H143.899ZM234.213 317.26C233.35 322.387 232.206 327.847 230.745 333.432C237.668 330.307 244.338 326.23 250.7 321.231C244.633 319.106 239.086 317.761 234.213 317.26ZM281.847 315.132C285.349 321.616 289.137 326.458 293.273 329.743C294.549 329.11 295.753 328.568 296.879 328.132C304.088 325.343 314.034 315.276 322.836 301.862C323.009 301.602 323.178 301.339 323.347 301.079C320.663 296.027 317.158 291.755 312.855 288.292C310.337 293.789 306.44 299.061 301.376 303.674C295.553 308.977 288.72 312.919 281.847 315.132ZM261.477 325.584C261.581 326.518 261.684 327.446 261.791 328.37C262.468 327.8 263.139 327.229 263.801 326.659C263.02 326.289 262.246 325.932 261.474 325.581L261.477 325.584ZM261.227 323.296C262.613 323.91 264.014 324.559 265.438 325.239C268.642 322.419 271.631 319.601 274.374 316.843C271.75 317.194 269.172 317.263 266.695 317.034C264.654 316.843 262.779 316.075 261.029 314.834C260.819 315.038 260.609 315.242 260.396 315.445C260.668 318.09 260.941 320.711 261.223 323.299L261.227 323.296ZM325.646 301.182C326.831 303.558 327.853 306.09 328.703 308.782C330.318 313.885 331.441 318.968 332.077 323.998C336.743 319.498 340.91 313.712 344.306 306.924C344.529 306.479 344.748 306.028 344.965 305.576C344.325 297.685 343.344 289.395 342.027 280.723C341.547 277.577 340.916 274.486 340.133 271.453C336.68 281.435 331.745 291.598 325.646 301.182ZM127.732 293.742C127.741 293.936 127.751 294.131 127.76 294.325C128.271 303.79 131.407 312.057 137.076 318.893C138.528 320.645 140.149 322.303 141.93 323.86C142.071 317.896 142.786 311.775 144.09 305.539C147.822 287.653 155.476 269.889 166.272 254.015C162.55 254.2 158.916 254.635 155.404 255.322C147.367 256.892 139.901 263.639 134.382 274.32C131.413 280.071 129.149 286.741 127.729 293.739L127.732 293.742ZM254.667 320.576C256.128 321.137 257.614 321.739 259.123 322.381C258.938 320.651 258.753 318.905 258.571 317.15C257.282 318.332 255.981 319.473 254.664 320.576H254.667ZM234.533 315.295C239.838 315.859 245.893 317.376 252.516 319.773C254.375 318.247 256.206 316.643 258.009 314.96C258.113 314.866 258.213 314.768 258.317 314.671C258.232 313.838 258.144 312.998 258.06 312.158C255.407 309.252 253.046 305.238 250.819 300.596C245.708 302.054 241.575 302.662 238.788 301.985C237.963 301.784 237.069 301.543 236.119 301.257C235.853 305.42 235.335 310.171 234.533 315.292V315.295ZM262.465 313.414C263.854 314.336 265.322 314.903 266.88 315.05C270.025 315.345 273.349 315.123 276.723 314.433C277.275 313.856 277.817 313.28 278.344 312.709C276.573 309.052 274.945 305.097 273.431 300.925C269.956 305.398 266.291 309.578 262.465 313.414ZM213.201 312.753C218.393 314.27 224.044 315.044 230.067 315.044C230.87 315.044 231.698 315.072 232.548 315.123C233.388 309.801 233.915 304.89 234.166 300.637C229.528 299.089 223.859 296.657 218.111 293.269C217.249 294.613 216.427 295.995 215.646 297.415C214.659 299.211 213.771 300.997 212.975 302.759C212.796 306.131 212.871 309.472 213.204 312.75L213.201 312.753ZM280.749 313.029C280.803 313.136 280.856 313.242 280.909 313.346C287.616 311.243 294.32 307.4 300.034 302.198C305.026 297.65 308.835 292.448 311.231 287.048C308.268 284.898 304.96 283.096 301.313 281.651C300.88 281.479 300.448 281.316 300.009 281.156C298.958 281.569 297.908 281.986 296.863 282.409C296.484 285.775 295.929 288.778 295.283 291.276C293.95 296.422 288.661 304.338 280.749 313.032V313.029ZM259.972 311.315C260.27 311.619 260.574 311.91 260.879 312.183C264.996 308.068 268.934 303.545 272.637 298.688C272.02 296.904 271.417 295.08 270.834 293.231C266.491 295.021 262.374 296.66 258.586 298.036C259.044 302.264 259.477 306.491 259.903 310.685C259.925 310.895 259.947 311.105 259.969 311.315H259.972ZM209.604 311.556C210.112 311.747 210.623 311.929 211.141 312.104C211.015 310.675 210.937 309.237 210.905 307.789C210.426 309.077 209.993 310.334 209.604 311.556ZM274.876 299.032C275.657 301.232 276.472 303.382 277.328 305.47C278.14 307.45 278.965 309.328 279.812 311.105C287.306 302.777 292.154 295.425 293.358 290.774C293.916 288.621 294.402 286.086 294.763 283.259C290.464 285.007 286.215 286.791 282.107 288.518C279.815 292.159 277.4 295.673 274.876 299.032ZM195.506 303.216C199.118 306.363 203.217 308.905 207.732 310.81C208.601 308.112 209.676 305.235 211.009 302.264C211.25 298.145 211.855 293.993 212.809 289.871C212.743 289.828 212.68 289.781 212.614 289.737C206.838 291.793 201.304 293.968 196.218 296.133C195.92 298.543 195.682 300.906 195.506 303.216ZM252.745 300.023C254.322 303.291 255.952 306.212 257.696 308.594C257.36 305.316 257.019 302.022 256.664 298.725C255.31 299.198 254.002 299.631 252.745 300.023ZM177.642 276.614C173.889 286.007 171.857 296.359 171.794 306.466C173.149 305.41 174.623 304.432 176.222 303.539C179.401 301.762 183.28 299.794 187.67 297.754C183.114 291.824 179.756 284.722 177.642 276.614ZM341.735 269.732C342.685 273.22 343.441 276.787 343.993 280.422C345.118 287.825 345.999 294.955 346.633 301.797C350.675 291.943 352.785 281.059 352.562 270.976C349.467 269.914 345.808 269.547 341.735 269.732ZM190.831 298.493C191.229 298.96 191.64 299.421 192.057 299.872C192.574 300.433 193.107 300.979 193.65 301.508C193.778 300.038 193.929 298.55 194.104 297.042C192.988 297.528 191.894 298.014 190.831 298.493ZM236.232 299.214C237.317 299.546 238.33 299.825 239.258 300.051C241.638 300.631 245.354 300.07 249.963 298.769C247.859 294.168 245.859 289.047 243.824 283.838C243.457 282.895 243.087 281.952 242.714 281.005C239.801 281.638 236.982 282.318 234.304 283.017C235.379 285.603 236.019 288.261 236.204 290.956C236.361 293.222 236.373 296.014 236.229 299.214H236.232ZM313.668 286.383C318.098 289.85 321.739 294.115 324.57 299.151C330.475 289.712 335.232 279.739 338.53 269.973C331.792 270.685 324.122 272.656 316.116 275.279C315.957 278.974 315.119 282.716 313.668 286.38V286.383ZM219.199 291.62C224.567 294.773 229.867 297.07 234.269 298.575C234.385 295.691 234.363 293.165 234.222 291.091C234.047 288.53 233.419 286.001 232.363 283.531C229.337 284.349 226.311 285.23 223.316 286.164C221.865 287.903 220.491 289.721 219.199 291.62ZM244.689 280.585C245.021 281.432 245.351 282.275 245.677 283.114C247.74 288.402 249.769 293.592 251.885 298.202C253.331 297.757 254.855 297.249 256.438 296.688C255.786 290.721 255.078 284.754 254.256 278.862C250.992 279.357 247.79 279.943 244.689 280.585ZM214.577 291.072C214.126 293.115 213.762 295.168 213.489 297.218C213.624 296.967 213.762 296.713 213.9 296.462C214.696 295.018 215.53 293.614 216.405 292.244C215.797 291.865 215.186 291.476 214.577 291.075V291.072ZM178.947 273.54C180.969 282.641 184.512 290.501 189.526 296.901C191.091 296.19 192.715 295.472 194.39 294.751C195.18 288.715 196.346 282.384 197.886 275.759C195.948 273.18 194.224 270.403 192.791 267.422C191.176 264.063 190.009 260.609 189.294 257.064C185.644 261.273 182.339 266.369 179.583 272.17C179.367 272.625 179.157 273.079 178.95 273.54H178.947ZM272.681 292.473C273.136 293.914 273.603 295.347 274.086 296.763C275.729 294.535 277.322 292.241 278.865 289.884C276.764 290.768 274.701 291.633 272.681 292.473ZM256.225 278.576C257.028 284.34 257.724 290.169 258.364 295.999C262.067 294.642 266.074 293.043 270.242 291.326C268.874 286.85 267.598 282.212 266.385 277.501C262.973 277.736 259.574 278.106 256.225 278.573V278.576ZM199.466 277.768C198.212 283.343 197.228 288.706 196.516 293.849C200.956 291.981 205.716 290.113 210.664 288.326C206.65 285.318 202.803 281.808 199.466 277.771V277.768ZM215.06 289.022C215.869 289.564 216.678 290.088 217.49 290.592C218.262 289.452 219.064 288.339 219.892 287.255C218.28 287.778 216.681 288.317 215.098 288.865C215.085 288.919 215.073 288.972 215.057 289.022H215.06ZM268.404 277.376C269.536 281.764 270.756 286.205 272.089 290.561C274.722 289.467 277.41 288.336 280.125 287.192C280.335 287.104 280.542 287.016 280.756 286.929C282.587 283.992 284.333 280.974 285.995 277.884C280.282 277.169 274.346 277.063 268.407 277.379L268.404 277.376ZM200.037 275.301C203.759 280.084 208.237 284.142 212.909 287.521C213.088 287.458 213.263 287.396 213.442 287.333C214.85 282.08 216.825 276.906 219.343 271.951C219.776 271.099 220.221 270.262 220.679 269.434C220.679 269.434 220.673 269.431 220.67 269.428C216.076 265.905 210.463 262.818 204.245 260.352C203.552 262.248 202.925 264.21 202.367 266.234C201.514 269.315 200.74 272.34 200.037 275.301ZM222.26 270.694C221.871 271.403 221.491 272.123 221.121 272.85C218.873 277.273 217.07 281.873 215.728 286.543C217.851 285.819 220.002 285.114 222.166 284.437C224.251 281.983 226.49 279.692 228.882 277.567C227.098 275.179 224.884 272.879 222.26 270.697V270.694ZM288.093 278.172C286.751 280.698 285.349 283.177 283.894 285.606C287.522 284.083 291.251 282.528 295.013 281.005C295.057 280.554 295.098 280.093 295.136 279.629C292.847 279.021 290.492 278.542 288.093 278.175V278.172ZM302.752 280.084C306.126 281.475 309.212 283.165 312.012 285.148C313.166 282.105 313.871 279.012 314.085 275.956C310.35 277.222 306.55 278.617 302.752 280.084ZM191.126 203.923C190.517 204.168 189.903 204.428 189.285 204.697C174.177 211.32 158.066 225.225 146.188 241.899C136.047 256.13 129.833 270.826 128.149 284.252C129.387 280.407 130.883 276.755 132.614 273.405C138.418 262.173 146.376 255.055 155.021 253.366C159.107 252.567 163.362 252.109 167.683 251.975C170.223 248.37 172.885 244.923 175.651 241.651C176.745 232.355 179.404 223.608 183.569 215.607C185.698 211.517 188.222 207.615 191.126 203.923ZM230.033 279.209C228.575 280.513 227.176 281.883 225.834 283.315C227.716 282.754 229.606 282.215 231.497 281.704C231.058 280.864 230.572 280.031 230.033 279.209ZM231.551 277.893C232.269 278.974 232.908 280.068 233.466 281.181C236.351 280.425 239.189 279.739 241.977 279.125C241.074 276.84 240.155 274.562 239.208 272.324C238.248 272.926 237.305 273.546 236.383 274.189C234.711 275.355 233.1 276.589 231.551 277.893ZM297.237 278.147C298.168 278.423 299.08 278.714 299.974 279.028C304.728 277.163 309.497 275.386 314.157 273.822C314.128 268.143 312.536 262.53 309.682 257.509C305.806 257.798 301.586 258.155 296.948 258.578C296.807 258.948 296.669 259.318 296.525 259.687C297.44 266.253 297.582 272.568 297.237 278.15V278.147ZM240.929 271.283C241.964 273.722 242.964 276.207 243.949 278.702C247.37 277.984 250.716 277.373 253.974 276.875C253.441 273.189 252.861 269.538 252.218 265.937C248.223 267.438 244.457 269.221 240.926 271.287L240.929 271.283ZM289.071 276.307C291.219 276.658 293.286 277.091 295.277 277.608C295.525 273.286 295.474 268.525 294.982 263.549C293.182 267.902 291.207 272.164 289.071 276.307ZM254.121 265.25C254.792 268.983 255.394 272.769 255.946 276.586C259.358 276.107 262.672 275.749 265.883 275.518C264.936 271.772 264.024 267.983 263.133 264.2C263.02 263.718 262.914 263.235 262.816 262.746C259.816 263.445 256.915 264.282 254.124 265.25H254.121ZM223.257 268.942C226.082 271.258 228.468 273.712 230.394 276.27C231.949 274.966 233.567 273.728 235.244 272.562C236.279 271.841 237.336 271.146 238.418 270.478C236.364 265.746 234.175 261.248 231.748 257.34C228.619 260.769 225.765 264.661 223.26 268.945L223.257 268.942ZM274.497 275.198C278.896 275.198 283.067 275.464 286.992 275.997C289.767 270.663 292.279 265.128 294.484 259.449C294.452 259.236 294.421 259.029 294.389 258.816C288.78 259.34 282.587 259.948 275.71 260.634C271.929 261.013 268.276 261.571 264.76 262.314C264.858 262.793 264.961 263.27 265.074 263.743C265.958 267.501 266.896 271.415 267.899 275.386C268.191 275.37 268.483 275.355 268.774 275.339C270.721 275.242 272.631 275.195 274.5 275.195L274.497 275.198ZM191.179 256.309C191.856 259.822 192.991 263.241 194.587 266.564C195.716 268.911 197.033 271.127 198.494 273.217C199.096 270.754 199.749 268.253 200.451 265.711C201.028 263.624 201.674 261.599 202.389 259.644C198.811 258.318 195.048 257.196 191.179 256.309ZM311.865 257.356C314.495 262.264 316 267.679 316.138 273.17C318.572 272.38 320.967 271.65 323.31 271.005C329.252 269.362 334.517 268.331 339.142 267.914C338.003 264.141 336.621 260.458 334.999 256.873C328.766 256.497 321.41 256.694 311.868 257.359L311.865 257.356ZM176.955 254.156C176.955 259.85 177.404 265.228 178.294 270.262C181.054 264.671 184.324 259.741 187.924 255.623C184.255 254.914 180.587 254.425 176.955 254.156ZM233.156 255.842C235.718 259.888 238.001 264.542 240.136 269.444C243.802 267.316 247.712 265.485 251.857 263.947C251.189 260.361 250.459 256.832 249.647 253.375C248.985 250.561 248.283 247.853 247.539 245.255C242.381 247.772 237.524 251.363 233.156 255.842ZM343.663 267.698C347 267.698 349.932 268.087 352.481 268.861C352.308 265.721 351.901 262.684 351.277 259.781C348.878 259.014 346.46 258.399 343.911 257.926C343.234 261.154 342.375 264.439 341.343 267.755C342.136 267.714 342.908 267.695 343.663 267.695V267.698ZM204.966 258.471C211.156 260.925 216.847 264.028 221.68 267.698C224.317 263.229 227.327 259.173 230.632 255.613C225.348 247.756 219.601 243.914 213.103 243.901C209.836 248.195 207.121 253.056 204.966 258.471ZM337.251 257.039C338.345 259.534 339.324 262.072 340.192 264.658C340.869 262.279 341.456 259.923 341.948 257.597C340.443 257.365 338.885 257.18 337.254 257.039H337.251ZM352.97 258.255C357.134 259.669 361.286 261.527 365.936 263.865C365.441 262.348 364.92 260.831 364.368 259.308C350.766 221.734 331.999 195.59 308.588 181.593C286.23 168.23 264.506 168.903 250.217 171.828C239.104 174.1 228.481 178.011 219.042 183.223C227.041 183.43 234.783 184.762 242.275 186.702C251.951 184.022 261.938 183.029 271.079 183.941C283.716 185.2 293.48 189.851 299.294 197.122C310.344 194.512 321.638 197.937 331.936 207.223C341.167 215.548 345.839 227.394 345.733 241.939C346.031 242.353 346.319 242.77 346.601 243.199C349.489 247.552 351.634 252.652 352.967 258.258L352.97 258.255ZM249.367 244.409C250.151 247.129 250.891 249.969 251.588 252.921C252.384 256.309 253.102 259.766 253.757 263.273C256.558 262.314 259.458 261.483 262.459 260.788C261.387 254.081 261.659 246.91 263.227 239.745C258.718 240.748 254.08 242.303 249.367 244.409ZM265.369 239.31C263.688 246.477 263.349 253.661 264.406 260.358C267.975 259.609 271.678 259.042 275.51 258.659C282.358 257.976 288.507 257.375 294.063 256.857C293.508 253.73 292.765 250.561 291.803 247.402C291.147 245.255 290.354 243.002 289.388 240.705C282.154 238.169 274.02 237.705 265.369 239.307V239.31ZM191.784 254.388C195.666 255.281 199.463 256.409 203.107 257.757C205.098 252.736 207.563 248.176 210.488 244.083C204.048 244.939 197.569 248.584 191.784 254.388ZM344.303 255.977C346.52 256.39 348.646 256.911 350.744 257.541C349.571 253.068 347.853 248.963 345.629 245.359C345.444 248.646 345.024 252.062 344.375 255.598C344.353 255.726 344.328 255.851 344.303 255.98V255.977ZM300.792 247.054C299.886 250.176 298.858 253.341 297.71 256.522C301.608 256.171 305.201 255.87 308.528 255.616C306.449 252.429 303.84 249.524 300.796 247.054H300.792ZM291.94 241.701C292.621 243.45 293.204 245.167 293.709 246.822C294.615 249.793 295.33 252.774 295.879 255.723C297.089 252.369 298.162 249.035 299.096 245.76C298.532 245.352 297.952 244.961 297.362 244.581C295.628 243.472 293.819 242.513 291.94 241.701ZM336.316 254.971C337.64 255.068 338.913 255.19 340.151 255.341C340.891 255.431 341.619 255.532 342.337 255.641C342.362 255.507 342.387 255.369 342.412 255.234C343.13 251.341 343.654 247.032 343.726 242.557C338.86 236.029 332.171 231.428 323.818 228.873C321.494 228.162 318.961 227.429 316.251 226.702C324.84 235.311 331.538 244.757 336.316 254.971ZM301.376 244.979C305.167 247.922 308.346 251.495 310.77 255.45C320.459 254.758 327.822 254.532 334.04 254.833C328.929 244.246 321.689 234.505 312.357 225.692C310.087 225.125 307.713 224.57 305.261 224.047C304.728 230.428 303.411 237.552 301.376 244.979ZM214.637 241.974C221.103 242.516 226.822 246.521 232.037 254.143C236.571 249.561 241.616 245.888 246.969 243.321C244.883 236.389 242.488 230.256 239.754 224.868C236.533 226.012 233.41 227.391 230.422 229.033C224.282 232.402 219.011 236.727 214.634 241.974H214.637ZM176.974 252.172C180.919 252.451 184.87 252.981 188.755 253.742C187.726 245.283 189.178 236.351 193.11 227.031C187.667 231.566 182.452 236.746 177.561 242.482C177.467 243.325 177.388 244.174 177.322 245.023C177.131 247.455 177.015 249.837 176.974 252.169V252.172ZM196.55 224.276C196.378 224.627 196.205 224.984 196.039 225.345C191.565 234.932 189.768 244.092 190.649 252.727C197.159 246.299 204.527 242.441 211.821 241.955C211.915 241.949 212.006 241.942 212.1 241.939C216.822 235.944 222.62 231.049 229.469 227.291C232.472 225.642 235.605 224.251 238.828 223.091C235.777 217.419 232.331 212.627 228.459 208.656C228.349 208.543 228.239 208.433 228.13 208.32C221.447 209.931 214.583 212.758 207.663 216.785C203.888 218.979 200.178 221.487 196.553 224.276H196.55ZM170.458 251.94C171.963 251.94 173.472 251.978 174.983 252.053C175.024 249.809 175.134 247.521 175.312 245.189C173.547 247.368 171.825 249.621 170.157 251.94C170.258 251.94 170.358 251.94 170.458 251.94ZM290.877 239.128C293.518 240.118 296.039 241.378 298.431 242.905C298.845 243.171 299.256 243.441 299.657 243.723C301.58 236.574 302.818 229.742 303.31 223.643C295.487 222.044 286.905 220.769 278.128 220.283C284.057 226.103 288.109 232.763 290.881 239.128H290.877ZM241.657 224.223C244.354 229.585 246.727 235.659 248.797 242.485C253.877 240.234 258.878 238.605 263.735 237.599C264.544 234.436 265.604 231.284 266.912 228.181C268.103 225.357 269.48 222.643 271.016 220.073C270.916 220.073 270.815 220.073 270.715 220.073C260.822 220.073 250.876 221.233 241.657 224.219V224.223ZM313.345 223.893C317.383 224.912 321.099 225.965 324.395 226.974C332.275 229.384 338.747 233.531 343.695 239.332C343.325 228.582 340.089 217.252 330.603 208.696C321.112 200.137 310.745 196.818 300.595 198.887C302.385 201.538 303.693 204.494 304.474 207.722C305.135 210.458 305.48 213.639 305.524 217.158C307.424 218.663 309.303 220.239 311.153 221.885C311.896 222.546 312.626 223.217 313.348 223.887L313.345 223.893ZM194.81 202.582C191.079 206.923 187.908 211.586 185.334 216.532C181.728 223.455 179.285 230.958 178.037 238.906C183.365 232.926 189.047 227.579 194.97 222.978C198.312 216.328 204.016 208.135 213.652 200.742C212.68 200.57 211.686 200.445 210.673 200.366C205.76 199.99 200.442 200.736 194.81 202.582ZM275.177 236.383C279.765 236.383 284.161 237.006 288.297 238.254C285.378 232.033 281.157 225.627 275.061 220.145C274.484 220.126 273.91 220.111 273.33 220.098C271.599 222.878 270.057 225.846 268.749 228.952C267.605 231.666 266.654 234.424 265.902 237.188C269.066 236.649 272.164 236.38 275.177 236.38V236.383ZM305.402 222.048C306.728 222.33 308.03 222.621 309.306 222.916C308.052 221.809 306.782 220.737 305.502 219.697C305.48 220.465 305.449 221.248 305.402 222.044V222.048ZM230.409 207.816C234.26 211.878 237.69 216.729 240.729 222.433C250.725 219.149 261.543 217.976 272.239 218.102C272.283 218.033 272.33 217.964 272.374 217.895C267.692 214.228 262.036 211.103 255.203 208.906C247.461 206.418 239.104 206.07 230.409 207.816ZM275.87 218.196C285.481 218.562 294.904 219.913 303.442 221.643C303.508 220.443 303.542 219.277 303.546 218.142C297.603 213.501 291.473 209.543 285.522 206.189C281.674 209.236 278.118 213.084 275.049 217.494C275.328 217.726 275.6 217.961 275.87 218.199V218.196ZM216.214 201.325C209.924 205.92 203.615 212.056 198.795 220.139C201.379 218.305 204.001 216.61 206.657 215.068C213.304 211.201 219.911 208.411 226.37 206.713C223.357 204.165 219.961 202.363 216.217 201.328L216.214 201.325ZM241.033 204.738C246.135 204.738 251.08 205.493 255.811 207.014C262.841 209.273 268.668 212.479 273.496 216.237C276.488 211.962 279.925 208.198 283.643 205.146C275.39 200.636 267.567 197.292 261.164 194.907C254.043 192.252 247.768 190.259 242.184 188.789C237.474 190.13 232.846 191.882 228.437 194.013C225.289 195.537 221.811 197.464 218.274 199.871C222.134 201.172 225.627 203.265 228.722 206.136C232.902 205.202 237.016 204.735 241.033 204.735V204.738ZM287.256 204.885C292.624 207.951 298.124 211.501 303.499 215.595C303.386 212.868 303.066 210.386 302.536 208.198C301.752 204.958 300.391 202.012 298.503 199.398C295.681 200.181 292.884 201.385 290.131 203.011C289.159 203.585 288.2 204.212 287.253 204.885H287.256ZM246.144 187.767C251.515 189.319 256.755 191.143 261.86 193.045C268.526 195.53 276.723 199.044 285.346 203.814C286.578 202.895 287.836 202.052 289.118 201.297C291.768 199.73 294.458 198.533 297.168 197.699C291.617 191.23 282.543 187.087 270.878 185.921C263.023 185.138 254.519 185.799 246.144 187.764V187.767ZM215.728 185.138C210.836 188.09 206.308 191.4 202.245 195.023C200.533 196.549 198.905 198.128 197.356 199.758C202.075 198.523 206.578 198.063 210.818 198.385C212.533 198.517 214.192 198.774 215.791 199.16C219.237 196.709 223.141 194.368 227.565 192.227C231.071 190.532 234.714 189.071 238.43 187.858C229.152 185.686 221.877 185.028 215.725 185.135L215.728 185.138Z" fill="#455A64"/>
<path d="M201.809 106.561C207.378 84.9263 216.791 66.1157 242.275 66.1157C264.622 66.1157 284.895 85.7944 283.421 110.043C282.066 132.338 262.694 151.224 238.979 148.569C216.769 146.084 195.431 131.329 201.806 106.561H201.809Z" fill="#5D8966"/>
<g opacity="0.8">
<path d="M236.163 121.024C236.163 119.257 236.27 117.718 236.48 116.408C236.69 115.101 237.041 113.904 237.527 112.819C238.013 111.735 238.643 110.707 239.415 109.735C240.186 108.764 241.136 107.729 242.256 106.633C243.102 105.811 243.896 105.031 244.629 104.298C245.363 103.564 246.012 102.809 246.574 102.038C247.135 101.267 247.577 100.443 247.9 99.5716C248.223 98.7003 248.386 97.7287 248.386 96.6569C248.386 94.3158 247.806 92.5262 246.649 91.2945C245.489 90.0597 243.789 89.4454 241.544 89.4454C240.647 89.4454 239.772 89.5708 238.926 89.8184C238.079 90.0691 237.317 90.4671 236.643 91.0156C235.969 91.5641 235.429 92.263 235.015 93.1091C234.605 93.9553 234.398 94.977 234.398 96.1742H225.311C225.336 93.8331 225.765 91.7709 226.599 89.9876C227.433 88.2075 228.581 86.7126 230.039 85.5028C231.497 84.2931 233.206 83.3842 235.163 82.773C237.119 82.1619 239.245 81.8579 241.538 81.8579C244.056 81.8579 246.298 82.1807 248.27 82.8295C250.239 83.4782 251.91 84.4247 253.281 85.6689C254.651 86.9163 255.692 88.4363 256.404 90.229C257.116 92.0248 257.47 94.0556 257.47 96.3215C257.47 97.9669 257.21 99.4995 256.686 100.919C256.162 102.339 255.463 103.674 254.591 104.918C253.717 106.166 252.723 107.36 251.6 108.507C250.477 109.654 249.317 110.788 248.123 111.907C246.752 113.155 245.834 114.518 245.373 116C244.912 117.483 244.667 119.159 244.642 121.027H236.154L236.163 121.024ZM235.527 132.648C235.527 131.949 235.639 131.304 235.862 130.705C236.085 130.107 236.417 129.583 236.853 129.135C237.289 128.687 237.825 128.339 238.462 128.088C239.098 127.841 239.826 127.715 240.65 127.715C241.475 127.715 242.202 127.841 242.839 128.088C243.475 128.339 244.012 128.687 244.448 129.135C244.883 129.583 245.219 130.107 245.457 130.705C245.692 131.304 245.812 131.953 245.812 132.648C245.812 134.018 245.363 135.165 244.466 136.086C243.57 137.008 242.296 137.468 240.65 137.468C239.004 137.468 237.74 137.008 236.856 136.086C235.972 135.165 235.53 134.018 235.53 132.648H235.527Z" fill="white"/>
</g>
<path d="M353.177 56.0244L316.866 66.4545L339.12 46.29L341.117 51.4832L350.352 51.8624L353.177 56.0244Z" fill="#EABE96"/>
<path d="M316.866 66.4543L345.482 46.2836L375.487 40.564L316.866 66.4543Z" fill="#F9DDBF"/>
<path d="M339.12 46.29L316.866 66.4545L332.256 37.6338L339.12 46.29Z" fill="#F9DDBF"/>
<path d="M672.005 205.468L709.85 210.855L684.733 193.753L683.457 199.238L674.254 200.905L672.005 205.468Z" fill="#EDCBAB"/>
<path d="M709.85 210.856L678.355 194.634L647.491 193.092L709.85 210.856Z" fill="#F9DDBF"/>
<path d="M684.733 193.753L709.85 210.856L690.402 184.122L684.733 193.753Z" fill="#F9DDBF"/>
<path d="M651.997 393.558C616.46 393.558 581.256 377.897 557.82 351.662C537.752 329.197 528.458 301.339 531.653 273.217C536.021 234.756 549.028 204.954 570.306 184.639C590.491 165.368 617.968 154.719 651.975 152.985C691.757 150.958 722.371 162.284 742.963 186.651C751.968 197.31 759.055 210.523 764.022 225.924C768.543 239.946 771.344 255.867 772.35 273.245C773.41 291.601 771.786 308.287 767.515 322.835C763.156 337.688 756.001 350.456 746.249 360.785C725.71 382.533 694.002 393.558 652.003 393.558H651.997ZM660.877 153.713C657.977 153.713 655.029 153.788 652.022 153.941C618.251 155.662 590.98 166.224 570.968 185.329C549.855 205.487 536.946 235.091 532.606 273.324C529.442 301.17 538.652 328.762 558.535 351.02C581.792 377.054 616.73 392.596 651.997 392.596C693.72 392.596 725.196 381.671 745.543 360.121C755.192 349.904 762.272 337.268 766.587 322.559C770.823 308.118 772.438 291.542 771.384 273.292C770.384 255.995 767.6 240.153 763.103 226.209C758.177 210.931 751.15 197.824 742.226 187.263C723.393 164.973 696.053 153.706 660.877 153.706V153.713Z" fill="#455A64"/>
<path d="M651.997 394.222C616.275 394.222 580.883 378.477 557.325 352.104C537.285 329.67 527.921 301.89 530.919 273.803L531.07 272.483C535.529 234.182 548.576 204.471 569.848 184.16C590.152 164.776 617.771 154.066 651.94 152.324C691.945 150.287 722.737 161.692 743.467 186.225C752.529 196.95 759.657 210.238 764.649 225.72C769.186 239.792 771.999 255.77 773.009 273.207C774.075 291.642 772.438 308.403 768.148 323.023C763.761 337.979 756.553 350.838 746.725 361.24C726.058 383.125 694.187 394.222 651.997 394.222ZM660.877 154.377C658.005 154.377 655.035 154.455 652.056 154.606C618.451 156.317 591.322 166.816 571.429 185.811C550.432 205.86 537.592 235.329 533.268 273.402C530.126 301.057 539.276 328.467 559.034 350.581C582.165 376.474 616.921 391.935 652 391.935C693.535 391.935 724.845 381.078 745.067 359.67C754.643 349.531 761.673 336.982 765.956 322.377C770.174 308.008 771.779 291.507 770.729 273.336C769.732 256.092 766.957 240.309 762.476 226.419C757.575 211.222 750.592 198.194 741.724 187.698C723.042 165.587 695.843 154.377 660.88 154.377H660.877Z" fill="#455A64"/>
<path d="M656.274 398.895C636.318 398.895 614.356 393.232 590.603 381.924C558.522 366.652 533.475 337.38 523.604 303.62C515.15 274.715 518.746 245.568 533.729 221.552C554.22 188.707 578.782 167.389 606.736 158.194C633.249 149.472 662.639 151.666 694.087 164.719C730.878 179.988 753.643 203.371 761.748 234.22C765.295 247.715 766.007 262.686 763.862 278.726C761.911 293.328 757.59 308.904 751.021 325.029C744.082 342.059 735.434 356.422 725.321 367.724C714.995 379.26 703.042 387.713 689.794 392.843C679.371 396.88 668.18 398.898 656.277 398.898L656.274 398.895ZM534.136 221.806L534.544 222.059C519.709 245.841 516.15 274.708 524.525 303.35C534.321 336.85 559.178 365.9 591.017 381.056C628.686 398.989 661.802 402.653 689.446 391.944C702.553 386.867 714.384 378.502 724.606 367.078C734.647 355.861 743.235 341.589 750.134 324.662C756.675 308.616 760.974 293.115 762.912 278.595C765.038 262.683 764.332 247.831 760.82 234.458C752.796 203.913 730.219 180.746 693.72 165.6C662.492 152.637 633.327 150.453 607.037 159.1C579.302 168.223 554.913 189.403 534.544 222.053L534.136 221.799V221.806Z" fill="#455A64"/>
<path d="M656.274 399.557C636.256 399.557 614.065 393.824 590.318 382.52C558.068 367.166 532.892 337.741 522.967 303.805C514.46 274.715 518.082 245.377 533.167 221.201C553.744 188.221 578.428 166.809 606.53 157.564C633.198 148.792 662.743 150.992 694.341 164.105C731.332 179.459 754.229 202.989 762.388 234.051C765.956 247.63 766.671 262.689 764.517 278.814C762.561 293.469 758.224 309.102 751.633 325.276C744.662 342.376 735.976 356.805 725.814 368.163C715.419 379.778 703.378 388.29 690.029 393.461C679.581 397.507 668.224 399.56 656.271 399.56L656.274 399.557ZM535.105 222.411C520.371 246.029 516.84 274.709 525.162 303.166C534.905 336.487 559.629 365.383 591.303 380.458C628.802 398.309 661.739 401.967 689.208 391.326C702.218 386.287 713.961 377.982 724.114 366.636C734.104 355.476 742.652 341.269 749.522 324.411C756.041 308.415 760.325 292.971 762.256 278.507C764.37 262.68 763.674 247.919 760.181 234.627C752.213 204.296 729.765 181.276 693.469 166.214C662.392 153.314 633.383 151.136 607.251 159.733C579.669 168.806 555.396 189.895 535.112 222.408L535.105 222.411Z" fill="#455A64"/>
<path d="M663.025 406.276C634.067 406.276 604.322 392.367 574.499 364.86C547.466 339.922 531.684 303.301 532.283 266.899C532.797 235.724 545.296 208.01 567.481 188.858C597.822 162.667 628.652 149.118 659.112 148.598C687.991 148.103 716.388 159.282 743.474 181.828C775.166 208.204 790.496 238.304 789.041 271.29C788.405 285.719 784.513 300.743 777.474 315.943C771.064 329.783 762.012 343.862 750.566 357.786C738.478 372.497 725.519 384.046 712.051 392.12C698.301 400.362 683.89 405.054 669.215 406.066C667.154 406.207 665.088 406.279 663.019 406.279L663.025 406.276ZM660.952 149.572C660.344 149.572 659.739 149.579 659.13 149.588C628.909 150.105 598.292 163.572 568.133 189.607C546.165 208.571 533.788 236.025 533.28 266.911C532.684 303.037 548.347 339.38 575.176 364.126C606.918 393.405 638.532 407.182 669.155 405.07C683.673 404.067 697.937 399.422 711.549 391.264C724.92 383.25 737.792 371.773 749.808 357.153C761.2 343.291 770.208 329.285 776.58 315.524C783.566 300.439 787.426 285.543 788.057 271.243C789.496 238.583 774.285 208.756 742.843 182.587C716.516 160.673 688.973 149.569 660.952 149.569V149.572Z" fill="#455A64"/>
<path d="M663.025 406.941C633.907 406.941 603.971 392.947 574.05 365.349C546.88 340.286 531.019 303.479 531.622 266.889C532.133 235.759 544.531 208.054 566.55 188.795L567.553 187.927C597.853 161.914 628.652 148.46 659.102 147.94C688.148 147.435 716.686 158.671 743.9 181.324C775.758 207.841 791.17 238.119 789.706 271.324C789.066 285.841 785.153 300.947 778.079 316.226C771.648 330.116 762.564 344.241 751.084 358.212C738.946 372.98 725.933 384.582 712.399 392.693C698.558 400.989 684.046 405.712 669.265 406.731C667.199 406.875 665.101 406.947 663.025 406.947V406.941ZM660.952 150.237C660.347 150.237 659.748 150.243 659.143 150.253C629.081 150.77 598.606 164.177 568.566 190.111C546.745 208.95 534.447 236.229 533.942 266.927C533.349 302.868 548.93 339.023 575.624 363.644C605.128 390.86 634.5 404.621 663.028 404.621C665.06 404.621 667.086 404.552 669.108 404.411C683.52 403.418 697.687 398.805 711.208 390.697C724.512 382.721 737.325 371.294 749.294 356.733C760.651 342.915 769.628 328.956 775.978 315.245C782.927 300.242 786.768 285.427 787.395 271.214C788.825 238.774 773.692 209.126 742.42 183.097C716.222 161.291 688.813 150.234 660.955 150.234L660.952 150.237Z" fill="#455A64"/>
<path d="M627.285 404.148C615.924 404.148 605.087 402.255 594.943 398.491C565.907 387.716 542.578 361.967 525.604 321.957C511.243 288.107 511.952 248.238 527.498 215.312C540.809 187.115 563.621 167.004 591.726 158.683C630.166 147.303 663.84 147.648 691.814 159.708C718.344 171.147 739.604 193.02 755 224.711C773.012 261.79 774.583 295.528 759.666 324.991C753.141 337.878 743.405 349.966 730.727 360.92C719.185 370.892 705.134 379.997 688.966 387.976C671.889 396.407 655.324 401.6 639.724 403.411C635.516 403.9 631.364 404.145 627.285 404.145V404.148ZM592.005 159.636C564.173 167.875 541.584 187.798 528.392 215.735C512.964 248.411 512.265 287.975 526.517 321.569C543.377 361.315 566.515 386.882 595.288 397.56C608.932 402.622 623.842 404.261 639.611 402.427C655.095 400.628 671.554 395.467 688.527 387.089C704.62 379.148 718.598 370.09 730.078 360.171C742.658 349.302 752.316 337.314 758.782 324.543C773.551 295.374 771.977 261.931 754.107 225.147C738.817 193.671 717.727 171.962 691.418 160.62C663.665 148.654 630.216 148.322 592.005 159.636Z" fill="#455A64"/>
<path d="M627.285 404.812C615.858 404.812 604.899 402.894 594.711 399.115C565.496 388.274 542.038 362.399 524.99 322.218C510.556 288.194 511.268 248.126 526.893 215.03C540.285 186.661 563.242 166.424 591.532 158.05C630.125 146.623 663.953 146.977 692.071 159.103C718.752 170.608 740.125 192.587 755.593 224.426C773.702 261.702 775.269 295.638 760.256 325.295C753.693 338.261 743.903 350.418 731.16 361.428C719.574 371.438 705.476 380.574 689.261 388.575C672.115 397.037 655.474 402.252 639.802 404.076C635.591 404.565 631.38 404.812 627.285 404.812ZM592.193 160.272C564.546 168.458 542.101 188.256 528.994 216.02C513.648 248.527 512.949 287.89 527.128 321.312C543.916 360.882 566.926 386.328 595.52 396.94C609.063 401.967 623.873 403.59 639.536 401.769C654.944 399.98 671.328 394.84 688.236 386.494C704.278 378.577 718.21 369.551 729.645 359.669C742.16 348.857 751.764 336.938 758.189 324.245C772.858 295.271 771.284 262.028 753.511 225.438C738.294 194.11 717.316 172.507 691.158 161.231C663.549 149.328 630.254 149.005 592.196 160.272H592.193Z" fill="#455A64"/>
<path d="M658.945 393.558C623.412 393.558 593.335 374.914 569.899 348.679C549.83 326.214 535.406 301.339 538.601 273.217C542.969 234.756 555.976 204.954 577.255 184.639C597.439 165.368 624.917 154.719 658.923 152.985C698.709 150.958 729.319 162.284 749.911 186.651C758.917 197.31 766.003 210.523 770.97 225.924C775.492 239.946 778.292 255.867 779.299 273.245C780.358 291.601 778.734 308.287 774.463 322.835C770.105 337.688 762.949 350.456 753.194 360.785C732.656 382.533 700.948 393.558 658.948 393.558H658.945ZM539.075 273.273L539.552 273.327C536.388 301.173 551.611 326.026 571.495 348.284C594.752 374.318 623.678 392.599 658.945 392.599C700.669 392.599 732.144 381.674 752.492 360.124C762.14 349.907 769.221 337.271 773.535 322.563C777.771 308.121 779.386 291.545 778.333 273.295C777.333 255.999 774.548 240.156 770.052 226.213C765.122 210.934 758.098 197.827 749.174 187.266C728.789 163.14 698.439 151.926 658.97 153.938C625.199 155.659 597.931 166.221 577.916 185.326C556.804 205.484 543.894 235.088 539.555 273.32L539.078 273.267L539.075 273.273Z" fill="#455A64"/>
<path d="M658.945 394.223C641.963 394.223 625.35 389.957 609.571 381.542C595.37 373.97 581.855 363.061 569.403 349.12C558.168 336.547 550.16 324.844 544.92 313.345C538.699 299.697 536.416 286.546 537.94 273.145C542.327 234.527 555.399 204.588 576.794 184.163C597.097 164.779 624.716 154.07 658.886 152.327C698.891 150.293 729.683 161.695 750.413 186.228C759.475 196.953 766.602 210.241 771.594 225.724C776.132 239.799 778.944 255.773 779.954 273.211C781.02 291.645 779.383 308.406 775.094 323.026C770.707 337.982 763.498 350.841 753.671 361.243C733.004 383.128 701.133 394.226 658.942 394.226L658.945 394.223ZM540.213 273.402C537.542 296.929 547.639 320.582 571.993 347.842C598.132 377.101 627.388 391.935 658.949 391.935C700.484 391.935 731.793 381.078 752.015 359.67C761.592 349.531 768.622 336.982 772.905 322.378C777.123 308.008 778.728 291.507 777.678 273.336C776.68 256.093 773.905 240.309 769.424 226.419C764.523 211.222 757.54 198.194 748.673 187.698C728.429 163.738 698.264 152.603 659.008 154.606C625.403 156.317 598.273 166.816 578.381 185.811C557.384 205.86 544.544 235.326 540.22 273.402H540.213ZM546.764 314.154C551.953 325.095 559.695 336.258 570.397 348.237C574.96 353.342 579.663 358.037 584.489 362.309C579.908 358.19 575.411 353.662 571.006 348.729C560.181 336.612 552.144 325.189 546.767 314.157L546.764 314.154Z" fill="#455A64"/>
<path d="M635.403 326.856C635.343 326.96 635.284 327.069 635.221 327.176C633.778 329.68 630.47 335.82 626.827 342.536C625.102 345.723 623.299 349.039 621.587 352.161C618.636 357.548 615.955 362.346 614.391 364.882C612.798 367.458 611.625 369.269 611.151 369.996H611.148C611.007 370.222 610.976 370.485 610.995 370.749C611.161 373.021 611.114 375.28 610.891 377.503C608.693 399.353 593.952 411.065 593.952 411.065L589.569 411.714C589.569 411.714 595.771 388.744 597.599 375.76C597.906 373.56 598.041 371.777 597.935 370.611C597.612 367.229 598.211 362.262 599.349 356.558C601.371 346.425 605.084 333.986 608.311 324.029C608.514 323.393 614.679 301.107 614.679 301.107C619.853 305.626 638.723 307.491 638.723 307.491C638.723 307.491 641.922 315.267 635.4 326.863L635.403 326.856Z" fill="#F29683"/>
<path d="M580.369 417.251H598.662C598.662 417.251 599.101 414.465 598.145 412.35C597.229 410.322 595.925 410.256 597.979 407.075C596.815 408.272 593.081 408.768 590.434 408.41C590.111 408.937 588.346 412.46 587.261 413.237C586.066 414.095 580.735 413.788 580.365 417.251H580.369Z" fill="#2358A5"/>
<path d="M635.403 326.856C635.343 326.959 635.284 327.069 635.221 327.176C633.779 329.68 625.98 344.075 622.336 350.791C626.557 333.431 623.622 316.072 623.622 316.072L635.4 326.853L635.403 326.856Z" fill="#FFB27D" fill-opacity="0.43"/>
<path d="M564.794 241.109C564.794 241.109 564.069 233.22 572.89 233.22C572.89 233.22 570.218 233.944 568.836 235.395C568.836 235.395 574.461 232.095 580.582 237.166C586.703 242.237 582.899 254.958 584.762 257.374C586.624 259.791 593.874 260.273 592.987 268.083C592.099 275.893 569.977 285.675 571.401 292.134C571.401 292.134 562.73 279.397 568.93 273.584C568.93 273.584 565.907 276.429 565.6 279.811C565.6 279.811 564.781 273.211 568.983 271.098C572.702 269.23 575.75 262.395 575.427 261.173C575.104 259.951 564.794 241.112 564.794 241.112V241.109Z" fill="#202D4F"/>
<path d="M577.242 274.239C577.242 274.239 564.693 305.886 561.99 304.714C559.287 303.542 543.349 298.484 543.349 298.484C543.349 298.484 543.916 302.997 544.174 303.201C546.506 305.05 558.24 314.091 565.267 314.552C573.072 315.063 583.639 292.084 583.639 292.084L577.239 274.239H577.242Z" fill="#FFB27D"/>
<path d="M567.287 239.999C567.167 239.52 577.735 244.772 578.271 245.368C583.228 250.862 581.814 258.033 578.979 258.102C577.161 258.145 577.512 261.17 577.512 261.17L557.249 252.601C557.249 252.601 559.689 238.382 567.287 239.999Z" fill="#202D4F"/>
<path d="M574.097 274.897C574.097 274.897 571.397 277.689 571.397 286.051C571.397 286.051 575.116 291.918 584.759 293.404C584.759 293.404 576.468 274.894 574.097 274.9V274.897Z" fill="#0F7170"/>
<path d="M621.142 308.848L621.079 305.429C627.896 306.288 644.584 297.287 644.584 297.287C644.584 297.287 651.718 302.028 652.693 315.568C653.17 322.177 656.183 350.127 656.518 358.47C656.641 361.494 656.682 363.653 656.694 364.515C656.694 364.518 656.694 364.521 656.694 364.525C656.697 364.788 656.823 365.02 656.983 365.23C658.394 367.022 659.617 368.922 660.676 370.89C671.077 390.233 665.64 416.518 665.64 416.518L663.226 415.904C663.226 415.904 654.43 388.657 648.682 376.87C647.707 374.87 646.82 373.316 646.08 372.416C643.919 369.793 641.64 365.336 639.391 359.974C635.146 349.835 621.145 308.851 621.145 308.851L621.142 308.848Z" fill="#F29683"/>
<path d="M651.091 417.252H669.384C669.384 417.252 669.823 414.466 668.867 412.35C667.951 410.322 666.518 409.398 666.86 406.944C665.697 408.141 663.803 409.479 661.159 409.125C660.836 409.652 659.068 412.46 657.986 413.237C656.791 414.096 651.461 413.789 651.091 417.252Z" fill="#2358A5"/>
<path d="M585.994 297.33C588.452 297.75 585.593 299.703 588.973 300.07C593.783 300.593 598.75 300.953 601.352 301.991C602.303 302.37 602.936 302.837 603.133 303.432C604.262 306.823 609.232 312.051 609.232 312.051C641.088 310.603 644.587 297.283 644.587 297.283C623.91 277.213 604.902 265.379 590.387 263.812C587.904 263.542 584.762 265.119 582.523 266.115C577.44 268.378 574.097 274.897 574.097 274.897C574.097 274.897 576.659 295.738 585.994 297.327V297.33Z" fill="#0F7170"/>
<path d="M588.973 300.069C593.783 300.593 598.75 300.953 601.353 301.991C602.416 286.11 594.918 274.167 594.918 274.167C594.918 274.167 590.026 294.061 588.973 300.069Z" fill="#0F7D7C"/>
<path d="M584.824 271.477C584.824 271.477 596.922 270.816 599.07 278.407C601.218 285.998 595.037 316.298 593.705 319.425C591.278 325.12 579.472 341.37 579.472 341.37L576.217 339.699C576.217 339.699 583.006 315.226 584.762 312.769C587.521 308.914 581.203 274.781 584.824 271.477Z" fill="#FFB27D"/>
<path d="M577.073 337.427C577.073 337.427 576.063 340.994 574.091 342.965C573.182 343.874 572.373 346.604 572.332 348.014C572.332 348.014 572.185 349.18 572.692 349.064C573.2 348.951 573.768 346.425 574.674 346.55C574.674 346.55 574.191 349.371 573.712 350.167C573.232 350.96 572.95 353.42 573.63 353.718C575.279 354.445 577.719 351.336 579.168 349.384C580.619 347.434 579.19 339.521 579.19 339.521L577.073 337.427Z" fill="#FFB27D"/>
<path d="M601.456 288.558C601.425 288.737 590.008 290.658 582.868 287.035C582.868 287.035 576.904 268.356 585.426 269.249C593.952 270.143 598.998 272.825 599.214 276.906C599.43 280.986 601.456 288.558 601.456 288.558Z" fill="#0F7170"/>
<path d="M582.523 266.115C582.523 266.115 579.158 278.658 574.097 274.897C574.238 274.292 573.357 272.531 572.316 270.744C570.987 268.46 569.403 266.125 569.403 266.125L576.251 260.129L576.659 259.772C578.757 263.433 580.814 264.868 582.526 266.118L582.523 266.115Z" fill="#FFB27D"/>
<path d="M569.403 266.128C569.403 266.128 570.987 268.457 572.316 270.744C576.571 268.121 576.577 262.856 576.248 260.129L569.403 266.128Z" fill="#ED985F"/>
<path d="M569.212 269.13C569.212 269.13 579.544 263.382 575.866 257.008C572.185 250.63 571.043 245.593 564.289 248.994C557.535 252.394 557.67 255.56 558.378 257.985C559.09 260.411 566.427 270.459 569.212 269.13Z" fill="#FFB27D"/>
<path d="M556.635 254.268C557.108 251.438 558.548 251.166 559.551 251.357C563.367 245.048 569.601 247.511 569.601 247.511C572.931 251.689 577.744 252.4 577.744 252.4C577.744 252.4 576.543 254.632 571.604 256.011C570.096 256.434 568.381 256.177 566.732 255.622C570.159 257.531 573.743 258.264 573.743 258.264C567.233 258.86 561.037 252.911 560.394 252.275C560.093 253.196 559.567 255.127 559.883 256.537C560.313 258.455 562.016 261.928 560.975 262.376C560.975 262.376 555.923 258.515 556.632 254.268H556.635Z" fill="#202D4F"/>
<path d="M545.575 299.922C545.575 299.922 543.728 300.74 541.85 298.828C540.891 297.851 539.172 297.321 540.06 296.798C540.947 296.274 543.314 297.349 543.873 297.54C544.428 297.728 545.575 299.925 545.575 299.925V299.922Z" fill="#FFB27D"/>
<path d="M614.767 90.1886C620.317 68.6294 629.699 49.8784 655.098 49.8784C677.371 49.8784 697.574 69.4882 696.106 93.658C694.755 115.878 675.448 134.701 651.815 132.056C629.68 129.577 608.414 114.875 614.767 90.1886Z" fill="#5D8966"/>
<g opacity="0.8">
<path d="M649.106 117.618C649.106 116.834 649.237 116.107 649.504 115.433C649.77 114.763 650.147 114.173 650.639 113.669C651.128 113.164 651.73 112.772 652.445 112.494C653.16 112.215 653.979 112.074 654.9 112.074C655.822 112.074 656.644 112.215 657.359 112.494C658.074 112.772 658.676 113.164 659.165 113.669C659.654 114.173 660.034 114.759 660.3 115.433C660.567 116.104 660.698 116.834 660.698 117.618C660.698 119.157 660.193 120.445 659.187 121.479C658.18 122.513 656.75 123.033 654.904 123.033C653.057 123.033 651.627 122.516 650.62 121.479C649.614 120.445 649.109 119.157 649.109 117.618H649.106ZM659.143 104.436H650.363L649.397 61.3208H660.15L659.14 104.436H659.143Z" fill="white"/>
</g>
<path d="M350.461 134.698C362.922 86.2896 383.991 44.1899 441.016 44.1899C491.03 44.1899 536.391 88.2233 533.092 142.489C530.06 192.383 486.712 234.646 433.644 228.707C383.944 223.144 336.191 190.13 350.461 134.701V134.698Z" fill="#5D8966"/>
<path d="M479.456 129.129C479.513 138.431 476.242 146.971 470.774 153.631C466.061 159.366 463.405 166.515 463.405 173.936V184.636C463.405 187.66 462.298 190.446 460.473 192.596C458.203 195.273 454.819 196.981 451.053 196.981H431.286C424.491 196.981 418.935 191.424 418.935 184.636V173.955C418.935 166.546 416.32 159.394 411.604 153.675C406.157 147.065 402.883 138.594 402.883 129.358C402.883 111.089 415.693 95.8076 432.826 92.0028C433.312 91.8931 433.804 91.796 434.296 91.7082C434.56 91.6612 434.823 91.6142 435.087 91.5735C437.068 91.2538 439.1 91.0908 441.17 91.0908C462.289 91.0908 479.334 108.021 479.456 129.129Z" fill="#F9DDBF"/>
<path d="M450.981 196.984L450.937 197.313L450.395 201.475L450.251 202.572V202.581L450.106 203.684L449.564 207.843L449.42 208.94V208.95L449.276 210.056L449.197 210.664C448.921 212.773 446.507 214.387 443.622 214.387H437.115C436.429 214.387 435.77 214.296 435.159 214.13C434.61 213.98 434.099 213.767 433.644 213.5L433.61 213.478C433.24 213.262 432.91 213.008 432.625 212.729C432.042 212.156 431.656 211.463 431.546 210.705L431.318 209.091L431.17 208.075V208.05L431.026 207.054L430.474 203.196L430.33 202.183V202.161L430.182 201.162L429.583 196.984H450.984H450.981Z" fill="#FFB27D" fill-opacity="0.43"/>
<path d="M448.401 196.984H444.726C438.793 198.698 432.907 200.394 430.182 201.162L430.327 202.161V202.183L430.474 203.196C432.681 202.584 437.984 201.068 450.94 197.313L450.984 196.984H448.404H448.401Z" fill="#F29683"/>
<path d="M431.167 208.047V208.072L431.314 209.091C433.867 208.373 439.135 206.863 450.106 203.685L450.251 202.581V202.572L450.395 201.475C443.462 203.481 435.071 205.904 431.023 207.054L431.167 208.047Z" fill="#F29683"/>
<path d="M433.607 213.475L433.641 213.497C434.096 213.764 434.607 213.977 435.156 214.127C438.166 213.265 442.631 211.977 449.276 210.053L449.42 208.947V208.937L449.564 207.84C443.631 209.558 436.824 211.523 432.619 212.723C432.904 213.002 433.233 213.256 433.604 213.472L433.607 213.475Z" fill="#F29683"/>
<path d="M426.853 147.92L425.147 148.208L433.449 197.166L435.156 196.877L426.853 147.92Z" fill="#FFB27D" fill-opacity="0.43"/>
<path d="M455.261 148.653L446.438 196.841L448.141 197.153L456.964 148.965L455.261 148.653Z" fill="#FFB27D" fill-opacity="0.43"/>
<path d="M445.738 156.906C445.516 156.906 445.268 156.878 444.992 156.815C444.528 156.708 444.236 156.389 444.142 155.887C443.945 154.806 444.795 152.822 445.986 151.139C445.362 150.052 444.534 149.155 443.663 148.892C442.377 148.504 440.405 149.688 439.031 151.205C439.282 151.562 439.508 151.932 439.705 152.305C440.408 153.634 440.916 155.333 440.223 156.116C439.966 156.408 439.442 156.671 438.404 156.279C437.106 155.79 436.642 154.69 437.125 153.264C437.363 152.565 437.799 151.838 438.354 151.164C437.291 149.776 435.867 148.723 434.466 148.898C433.716 148.992 433.077 149.256 432.54 149.626C433.437 151.293 433.644 153.408 433.02 154.543C432.597 155.317 431.857 155.561 430.938 155.232C430.276 154.997 429.932 154.088 430.06 152.916C430.189 151.716 430.791 150.403 431.857 149.491C431.578 149.058 431.245 148.673 430.86 148.375C428.445 146.501 426.451 148.513 426.366 148.598L425.99 148.234C426.015 148.209 428.401 145.805 431.183 147.961C431.603 148.287 431.97 148.704 432.274 149.174C432.866 148.773 433.575 148.485 434.4 148.381C435.971 148.184 437.539 149.29 438.702 150.766C440.198 149.143 442.327 147.943 443.813 148.391C444.751 148.676 445.638 149.578 446.315 150.694C446.946 149.876 447.648 149.165 448.332 148.713C449.426 147.99 450.138 148.156 450.542 148.422C450.959 148.695 451.311 149.061 451.605 149.484C451.935 149.224 452.279 149.002 452.621 148.829C453.888 148.2 455.051 148.247 455.898 148.961L455.559 149.362C454.647 148.591 453.474 148.992 452.856 149.3C452.518 149.469 452.188 149.685 451.881 149.93C452.725 151.45 452.888 153.43 452.405 154.392C452.101 154.997 451.558 155.207 450.922 154.972C449.777 154.552 449.498 153.766 449.464 153.176C449.401 152.054 450.182 150.773 451.198 149.832C450.934 149.441 450.621 149.102 450.254 148.861C449.758 148.535 449.094 148.839 448.62 149.152C447.94 149.604 447.225 150.346 446.594 151.186C447.382 152.681 447.789 154.424 447.491 155.546C447.347 156.091 446.933 156.906 445.742 156.906H445.738ZM446.259 151.653C445.221 153.164 444.49 154.875 444.66 155.793C444.713 156.085 444.857 156.248 445.108 156.304C446.134 156.536 446.767 156.238 446.983 155.414C447.237 154.461 446.905 152.976 446.259 151.653ZM438.68 151.616C438.2 152.214 437.824 152.844 437.623 153.436C437.225 154.609 437.551 155.398 438.592 155.793C439.012 155.95 439.567 156.075 439.834 155.775C440.245 155.308 440.003 153.982 439.248 152.553C439.078 152.236 438.89 151.923 438.683 151.619L438.68 151.616ZM432.126 149.955C431.211 150.769 430.697 151.923 430.584 152.973C430.487 153.866 430.706 154.593 431.117 154.737C431.782 154.972 432.271 154.822 432.565 154.289C433.099 153.317 432.904 151.446 432.126 149.951V149.955ZM451.467 150.29C450.558 151.164 449.937 152.283 449.987 153.148C450.022 153.775 450.398 154.223 451.1 154.48C451.486 154.621 451.753 154.518 451.935 154.154C452.339 153.349 452.167 151.628 451.467 150.29Z" fill="#FFB27D" fill-opacity="0.43"/>
<path d="M460.934 105.808C464.082 108.773 463.687 114.226 459.639 115.439C456.588 116.354 452.035 115.132 449.784 111.24C447.535 107.347 448.57 104.144 451.333 102.552C454.092 100.96 457.66 102.728 460.934 105.808Z" fill="#FFF0E3"/>
<path d="M440.33 66.3823H439.96C439.288 66.3823 438.743 66.9268 438.743 67.5983V82.6794C438.743 83.351 439.288 83.8954 439.96 83.8954H440.33C441.002 83.8954 441.546 83.351 441.546 82.6794V67.5983C441.546 66.9268 441.002 66.3823 440.33 66.3823Z" fill="#FFF0E3"/>
<path d="M495.402 95.9748L495.202 95.6274C494.87 95.0533 494.136 94.8566 493.561 95.1881L486.167 99.4551C485.592 99.7865 485.396 100.521 485.727 101.095L485.928 101.442C486.259 102.016 486.994 102.213 487.568 101.882L494.963 97.6145C495.537 97.2831 495.734 96.5489 495.402 95.9748Z" fill="#FFF0E3"/>
<path d="M491.021 122.519C491.021 121.748 491.651 121.118 492.423 121.118H511.13C511.901 121.118 512.532 121.748 512.532 122.519C512.532 123.29 511.901 123.92 511.13 123.92H492.423C491.651 123.92 491.021 123.29 491.021 122.519Z" fill="#FFF0E3"/>
<path d="M464.873 90.2165C464.164 89.9157 463.831 89.0883 464.133 88.38L474.063 65.1128C474.364 64.4045 475.192 64.0723 475.904 64.3732C476.612 64.674 476.945 65.5014 476.644 66.2097L466.713 89.4769C466.412 90.1852 465.584 90.5174 464.876 90.2165H464.873Z" fill="#FFF0E3"/>
<path d="M396.198 101.43L396.399 101.082C396.728 100.512 396.53 99.7721 395.96 99.443L388.563 95.1744C387.992 94.8454 387.252 95.0428 386.923 95.6132L386.722 95.9611C386.393 96.5315 386.59 97.2711 387.161 97.6002L394.558 101.869C395.129 102.198 395.866 102 396.198 101.43Z" fill="#FFF0E3"/>
<path d="M391.144 122.519C391.144 121.748 390.513 121.118 389.742 121.118H371.034C370.263 121.118 369.633 121.748 369.633 122.519C369.633 123.29 370.263 123.92 371.034 123.92H389.742C390.513 123.92 391.144 123.29 391.144 122.519Z" fill="#FFF0E3"/>
<path d="M417.289 90.2165C417.997 89.9157 418.33 89.0883 418.029 88.38L408.098 65.1128C407.797 64.4045 406.969 64.0723 406.26 64.3732C405.552 64.674 405.219 65.5014 405.52 66.2097L415.451 89.4769C415.752 90.1852 416.58 90.5174 417.289 90.2165Z" fill="#FFF0E3"/>
<path d="M404.153 201.037C404.172 200.507 404.583 194.803 413.278 194.505C413.278 194.505 409.004 195.016 408.264 196.894C408.264 196.894 411.174 194.571 413.545 195.32C415.915 196.066 417.308 200.219 417.323 201.582C417.336 202.949 416.019 207.349 414.517 207.725C413.946 207.866 413.291 207.828 412.695 207.725C413.096 208.348 413.488 209.038 413.861 209.809C417.33 216.926 413.752 223.884 410.817 223.113C408.932 222.621 408.399 225.833 408.399 225.833L390.099 211.025C390.099 211.025 396.822 197.122 404.157 201.037H404.153Z" fill="#2C3A64"/>
<path d="M397.782 410.73L401.67 412.178C401.67 412.178 418.552 388.773 420.631 368.182C421.001 364.506 420.879 360.942 420.076 357.655C420.076 357.655 420.243 356.711 420.531 355.047C420.666 354.27 420.829 353.336 421.017 352.261C421.566 349.117 422.321 344.818 423.184 339.919C425.172 328.649 427.743 314.242 429.744 303.652L428.696 303.316L417.364 299.662L415.022 292.228L406.584 290.009C406.584 290.009 404.699 293.695 403.012 311.105C402.702 313.389 402.419 315.906 402.206 318.639C401.551 326.975 401.501 337.315 403.009 349.136C403.395 352.164 403.884 355.285 404.492 358.498C404.937 360.851 405.003 364.057 404.815 367.74C403.965 384.573 397.782 410.733 397.782 410.733V410.73Z" fill="#0F7170"/>
<path d="M402.206 318.636L420.531 355.044C420.666 354.267 420.829 353.333 421.017 352.258C421.566 349.114 422.322 344.815 423.184 339.916C425.172 328.646 427.743 314.239 429.744 303.649L428.696 303.313L417.364 299.659L415.022 292.225L404.063 286.151C404.063 286.151 404.063 287.847 403.109 306.369C402.799 308.654 402.42 315.903 402.206 318.633V318.636Z" fill="#0F7D7C"/>
<path d="M410.268 294.679L410.691 291.044C417.797 292.93 437.611 284.108 437.611 284.108C437.611 284.108 443.672 291.821 442.769 306.319C442.327 313.396 441.521 343.467 440.681 352.367C440.377 355.592 440.11 357.887 440 358.805C440 358.808 440 358.811 440 358.814C439.966 359.093 440.066 359.36 440.207 359.601C441.446 361.704 442.471 363.891 443.315 366.132C451.577 388.136 442.042 415.233 442.042 415.233L439.568 414.237C439.568 414.237 434.143 384.081 429.734 370.758C428.985 368.498 428.27 366.721 427.611 365.662C425.696 362.569 423.915 357.517 422.303 351.509C419.252 340.148 416.797 325.371 415.16 313.963C413.767 304.301 410.271 294.679 410.271 294.679H410.268Z" fill="#0F7170"/>
<path d="M359.84 281.563L359.288 285.744C359.288 285.744 361.806 285.408 362.22 285.38C363.515 285.293 367.344 285.045 370.903 284.663C376.255 284.133 380.137 284.011 382.668 282.453C386.522 280.103 392.846 272.897 396.963 265.695C397.083 265.52 397.17 265.344 397.258 265.166C399.406 261.342 400.905 257.55 401.024 254.522C401.112 252.67 400.905 251.081 400.525 249.702C400.027 247.878 399.202 246.44 398.349 245.352C398.23 245.177 398.114 245.001 397.939 244.854C396.528 243.177 395.145 242.472 395.145 242.472C394.439 242.177 392.094 245.02 391.3 245.872L390.636 247.844C389.99 248.521 382.881 271.352 379.676 274.909C378.294 276.439 371.853 278.84 365.986 280.466C362.179 281.522 359.846 281.572 359.846 281.572L359.84 281.563Z" fill="#F2A16B"/>
<path d="M396.691 250.58C398.92 251.614 401.617 252.319 404.875 252.495C417.091 253.166 419.866 242.46 420.371 235.355C418.609 234.719 417.066 234.778 416.179 234.825C415.47 234.863 414.736 234.932 414.084 235.004C413.777 235.038 413.467 234.954 413.222 234.762C411.682 233.556 409.34 229.901 407.932 224.141L407.405 224.386L398.588 228.529C398.588 228.529 399.525 231.396 400.215 234.139C400.513 235.327 400.767 236.496 400.877 237.398C400.98 238.251 400.497 239.062 399.707 239.401C399.707 239.401 399.707 239.401 399.707 239.41C399.619 239.636 397.7 244.516 396.694 250.577L396.691 250.58Z" fill="#FFB27D"/>
<path d="M440.16 288.079C440.06 292.598 408.236 296.6 402.761 293.569C402.761 293.569 401.341 286.721 399.532 279.027C398.986 276.711 398.406 274.323 397.823 272.02C396.446 266.604 395.029 261.665 393.941 259.317C393.828 259.073 393.727 258.838 393.636 258.59C391.197 252.128 395.762 245.22 392.611 243.177C392.611 243.177 394.48 241.456 399.71 239.404C399.71 239.404 399.71 239.407 399.707 239.413C399.626 239.717 399.158 244.008 400.055 245.684C401.824 249 408.738 247.267 411.889 243.174C413.739 240.779 415.169 238.357 415.818 236.091C415.966 235.58 416.179 234.825 416.179 234.825C416.179 234.825 422.011 234.035 425.285 235.361C425.285 235.361 423.99 238.169 423.516 241.268C423.469 241.563 423.435 241.858 423.403 242.155C423.341 242.779 423.322 243.406 423.356 244.014C423.403 244.819 423.82 245.534 424.482 246.233C425.087 246.872 425.906 247.502 426.831 248.179C427.439 248.618 428.088 249.075 428.759 249.574C428.819 253.222 428.562 259.223 429.236 265.626C429.405 267.253 429.948 268.804 430.794 270.18C431.133 270.732 431.519 271.249 431.948 271.734C435.394 275.592 440.27 287.549 440.154 288.079H440.16Z" fill="#F29683"/>
<path d="M398.588 228.532C398.588 228.532 399.525 231.396 400.215 234.142C405.367 232.706 406.932 227.291 407.405 224.389L398.588 228.532Z" fill="#ED985F"/>
<path d="M397.503 231.562C397.503 231.562 409.832 228.71 407.935 221.063C406.041 213.416 406.355 207.9 398.403 209.395C390.451 210.893 389.651 214.187 389.66 216.895C389.673 219.6 394.245 232.108 397.5 231.562H397.503Z" fill="#FFB27D"/>
<path d="M388.97 212.557C390.297 209.787 391.855 209.934 392.831 210.426C398.622 205.07 404.307 209.445 404.307 209.445C406.493 214.726 411.234 216.882 411.234 216.882C411.234 216.882 409.34 218.819 403.849 218.778C402.172 218.766 400.488 217.995 398.951 216.936C401.911 219.913 405.379 221.728 405.379 221.728C398.509 220.414 393.9 212.463 393.426 211.617C392.843 212.476 391.73 214.306 391.636 215.851C391.507 217.951 392.232 222.025 391.028 222.179C391.028 222.179 386.976 216.713 388.964 212.557H388.97Z" fill="#2C3A64"/>
<path d="M392.608 243.174C392.608 243.174 391.513 243.804 389.513 249.912C389.513 249.912 391.805 252.758 394.599 252.491C394.599 252.491 394.972 243.87 392.608 243.174Z" fill="#F29683"/>
<path d="M427.652 417.252H447.231C447.231 417.252 447.702 414.268 446.679 412.009C445.701 409.837 444.165 408.849 444.531 406.223C443.287 407.505 441.261 408.937 438.429 408.558C438.081 409.119 436.191 412.128 435.033 412.958C433.754 413.876 428.05 413.551 427.655 417.252H427.652Z" fill="#2358A5"/>
<path d="M385.619 417.252H405.198C405.198 417.252 405.928 414.13 404.643 412.009C403.504 410.128 403.94 409.059 404.784 407.505C403.896 407.868 402.749 408.198 401.485 408.125C400.51 408.069 399.478 407.627 398.572 407.101C397.729 408.06 394.123 412.146 392.994 412.958C391.714 413.876 386.011 413.55 385.615 417.252H385.619Z" fill="#2358A5"/>
<path d="M367.933 267.817C367.933 267.817 366.215 265.504 365.143 265.018C364.07 264.532 363.054 261.549 362.462 262.461C362.101 263.016 363.013 265.084 362.781 265.551C362.546 266.018 360.179 265.031 359.765 264.369C359.486 263.924 357.046 260.982 356.99 262.339C356.933 263.696 359.066 268.904 360.116 269.566C361.167 270.23 365.143 271.123 365.143 271.123L367.933 267.817Z" fill="#FFB27D"/>
<path d="M421.293 255.127C416.865 265.952 399.826 279.36 399.826 279.36L399.531 279.028C398.986 276.712 398.406 274.323 397.823 272.02L415.972 255.131H421.293V255.127Z" fill="#FFB27D" fill-opacity="0.43"/>
<path d="M365.701 268.037L365.146 271.124C365.146 271.124 374.885 273.349 377.03 273.819L377.058 273.831C380.768 274.568 384.951 275.326 388.597 275.709C391.172 275.956 393.477 276.013 395.167 275.787C395.336 275.768 395.48 275.737 395.665 275.693C399.836 274.862 406.628 269.895 412.808 264.066C413.664 263.263 414.492 262.445 415.31 261.656C418.295 258.691 420.989 255.657 423.03 252.908C424.269 251.276 425.297 249.743 425.978 248.408C426.225 247.941 426.461 247.499 426.633 247.057C430.148 239.288 426.79 236.448 426.79 236.448C426.721 236.386 426.655 236.32 426.561 236.245C425.943 235.831 425.037 235.966 423.911 236.514C422.497 237.191 420.713 238.539 418.728 240.247C415.618 242.992 396.963 265.689 392.611 266.554C388.829 267.303 365.701 268.037 365.701 268.037Z" fill="#FFB27D"/>
<path d="M424.821 235.192C424.821 235.192 428.621 236.257 428.953 240.237C429.286 244.218 428.768 256.534 428.768 256.534C428.768 256.534 416.342 252.974 411.281 245.377C411.281 245.377 420.406 235.289 424.821 235.188V235.192Z" fill="#F29683"/>
</g>
<defs>
<clipPath id="clip0_204_421">
<rect width="911" height="421" fill="white"/>
</clipPath>
</defs>
</svg>
